<?xml version="1.0" standalone="no"?>
<!DOCTYPE svg PUBLIC "-//W3C//DTD SVG 20010904//EN"
 "http://www.w3.org/TR/2001/REC-SVG-20010904/DTD/svg10.dtd">
<svg version="1.0" xmlns="http://www.w3.org/2000/svg"
 width="2048.000000pt" height="2048.000000pt" viewBox="0 0 2048.000000 2048.000000"
 preserveAspectRatio="xMidYMid meet">

<g transform="translate(0.000000,2048.000000) scale(0.100000,-0.100000)"
fill="#000000" stroke="none">
<path d="M9860 18384 c-238 -20 -322 -28 -495 -50 -228 -29 -529 -87 -720
-139 -155 -43 -387 -117 -381 -122 2 -2 88 1 192 7 219 12 757 12 794 0 17 -6
19 -8 7 -9 -57 -3 -515 -55 -637 -72 -383 -53 -841 -164 -1197 -289 -164 -57
-443 -176 -649 -275 -714 -344 -1340 -837 -1652 -1303 -83 -123 -149 -238
-265 -457 -117 -223 -300 -531 -476 -805 -234 -363 -338 -503 -556 -745 -65
-71 -140 -159 -167 -195 -109 -142 -256 -507 -393 -979 -42 -144 -45 -111 -10
118 48 313 131 590 237 794 58 110 137 218 261 356 339 375 566 710 882 1302
309 578 366 673 526 875 141 177 477 493 699 656 278 204 648 417 1070 616
322 152 483 221 890 383 85 33 166 67 180 75 23 12 23 13 4 14 -36 0 -361 -68
-523 -111 -555 -146 -1080 -379 -1577 -699 -379 -245 -579 -418 -884 -765
-194 -221 -251 -270 -402 -346 -115 -57 -153 -92 -236 -211 -102 -147 -163
-221 -336 -408 -259 -279 -365 -409 -562 -685 -484 -677 -886 -1415 -1115
-2045 -164 -450 -292 -979 -343 -1415 -34 -288 -39 -458 -33 -1045 11 -997 39
-1326 173 -2045 149 -803 515 -1731 969 -2461 93 -149 293 -438 414 -599 84
-112 370 -469 422 -528 l34 -38 1418 3 1417 3 -76 45 c-95 56 -195 138 -223
183 -56 90 5 186 164 258 148 67 574 164 1091 249 312 51 402 72 475 111 84
45 99 95 53 187 -34 69 -91 117 -254 215 -74 44 -149 91 -167 105 -49 37 -89
107 -147 261 -29 77 -64 158 -79 180 -17 25 -62 63 -124 104 -140 93 -232 136
-332 156 l-86 18 66 11 c151 27 248 7 400 -84 52 -31 102 -64 113 -73 23 -21
52 -78 111 -221 25 -63 49 -117 51 -119 2 -3 21 11 42 31 114 109 276 147 962
223 173 19 335 40 359 45 48 12 101 37 101 48 0 14 -76 101 -115 132 -83 66
-202 107 -334 116 -81 6 -92 4 -184 -30 -141 -52 -179 -50 -291 15 -99 56
-206 95 -400 144 l-131 33 47 7 c67 10 396 0 440 -14 20 -6 71 -34 113 -62
108 -70 117 -71 221 -14 73 40 98 49 153 52 79 6 158 -20 267 -88 95 -59 154
-89 174 -89 10 0 55 18 102 40 102 48 288 103 442 130 212 39 653 87 1049 116
130 10 237 21 237 26 0 4 -16 18 -35 30 -19 13 -35 26 -35 29 0 10 148 75 248
110 50 17 92 35 92 39 0 7 -152 81 -230 112 l-35 15 44 27 c91 58 255 139 344
171 50 18 91 36 90 41 -1 4 -33 19 -72 33 -38 15 -72 29 -76 32 -12 12 170 70
236 76 81 7 146 -8 248 -55 124 -58 158 -52 305 53 26 19 74 43 105 52 70 20
140 10 256 -37 96 -39 193 -50 245 -27 19 8 74 46 121 84 98 79 129 93 208 93
64 0 132 -28 196 -80 70 -56 123 -83 151 -76 14 4 62 31 107 61 132 87 241
104 342 53 22 -12 68 -48 103 -82 l64 -61 176 -6 c156 -5 186 -9 250 -32 39
-14 72 -22 72 -18 0 5 -11 33 -24 62 -13 30 -29 78 -36 106 -13 57 -19 197 -8
208 3 4 54 7 112 7 l106 0 0 48 c0 59 17 142 33 164 11 14 20 14 102 -3 50
-10 109 -27 133 -36 24 -10 44 -16 45 -14 2 2 16 24 31 49 36 57 166 211 183
217 17 7 67 -32 165 -125 l77 -74 58 40 c32 22 82 52 112 67 l53 28 19 -24
c10 -13 37 -56 61 -95 l43 -71 78 -6 c97 -8 130 -22 72 -32 -22 -3 -67 -15
-100 -26 -83 -27 -87 -27 -95 1 -10 35 -57 130 -79 159 l-19 25 -43 -19 c-24
-11 -72 -48 -109 -83 -52 -50 -67 -59 -75 -48 -70 99 -104 140 -149 179 l-55
47 -60 -73 c-53 -62 -102 -145 -124 -210 -6 -16 -11 -15 -65 12 -74 37 -201
76 -212 65 -5 -5 -16 -58 -25 -119 -9 -60 -18 -111 -20 -113 -2 -2 -20 1 -42
7 -21 6 -66 11 -101 11 l-62 0 6 -57 c11 -97 42 -203 79 -270 19 -35 35 -65
35 -66 0 -1 -17 -1 -39 1 -79 8 -207 -40 -274 -102 l-28 -26 22 -32 c44 -62
195 -206 237 -228 24 -12 42 -23 40 -24 -1 -2 -73 -34 -158 -71 -206 -90 -229
-104 -297 -187 -66 -82 -113 -114 -358 -248 -93 -52 -179 -101 -189 -109 -38
-32 -56 -91 -56 -186 -1 -241 -32 -440 -88 -573 -44 -102 -99 -359 -82 -376
16 -16 134 -9 259 13 63 12 174 26 246 31 72 5 154 17 182 25 29 9 100 48 160
87 153 101 191 116 327 132 89 11 125 19 158 39 71 42 152 122 276 270 166
200 269 279 410 314 33 9 134 17 242 20 l185 6 115 57 c150 75 320 139 500
188 214 58 227 59 110 4 -271 -127 -471 -233 -552 -296 -136 -103 -147 -107
-328 -122 -188 -16 -323 -43 -390 -80 -77 -42 -171 -124 -240 -211 -35 -43
-86 -101 -113 -130 l-50 -51 49 -9 c27 -4 193 -7 369 -6 189 1 311 -2 298 -7
-39 -16 -332 -78 -513 -110 -212 -37 -482 -97 -530 -116 -44 -19 -64 -37 -112
-104 -22 -30 -111 -125 -197 -210 -87 -85 -184 -184 -215 -220 l-57 -65 77
150 c43 83 92 173 110 202 40 63 77 134 72 138 -2 2 -37 -5 -78 -16 -55 -15
-131 -22 -287 -29 -223 -10 -350 -25 -550 -66 -168 -34 -225 -56 -307 -116
-39 -28 -147 -105 -241 -171 -93 -66 -226 -163 -295 -216 -69 -54 -152 -118
-184 -142 l-59 -44 2104 -3 2104 -3 43 48 c60 67 374 458 463 578 351 469 567
854 846 1504 68 160 153 367 153 374 0 2 -62 1 -138 -1 -125 -4 -146 -2 -234
22 -52 14 -102 26 -110 26 -7 0 -28 -28 -45 -62 -17 -35 -75 -119 -128 -188
-54 -69 -114 -149 -133 -177 -19 -29 -38 -53 -41 -53 -3 0 -24 28 -46 62 -22
35 -83 120 -136 191 -53 70 -108 153 -123 183 -22 44 -31 54 -44 49 -127 -53
-324 -71 -469 -41 -44 9 -90 16 -102 16 -16 0 -26 10 -37 36 -8 20 -14 37 -12
38 2 2 62 -6 133 -16 92 -14 163 -18 245 -15 154 7 225 30 316 102 38 30 82
61 97 68 26 13 20 14 -80 21 -59 4 -164 18 -233 31 -213 42 -344 29 -511 -49
-97 -46 -108 -46 -39 0 30 19 75 55 100 80 45 43 47 44 115 44 l70 1 -42 38
c-45 41 -48 47 -34 70 7 11 30 2 113 -46 229 -134 473 -189 658 -147 14 3 -3
-10 -38 -29 -149 -83 -186 -140 -149 -230 8 -18 57 -89 110 -160 53 -70 104
-141 114 -157 21 -36 27 -37 41 -6 6 13 55 79 110 147 115 144 142 189 142
242 0 34 -7 46 -56 93 -30 30 -79 68 -107 84 -29 16 -50 30 -47 30 3 0 30 -7
60 -16 30 -8 111 -18 180 -21 103 -4 142 -1 220 15 131 28 255 75 347 131 43
26 137 83 208 126 72 43 160 92 197 107 74 31 309 98 345 98 47 0 21 18 -54
36 -105 26 -322 25 -443 0 -121 -26 -288 -87 -485 -176 -163 -74 -524 -215
-531 -207 -2 2 15 14 39 27 86 47 216 152 318 257 171 176 233 267 394 578
133 257 177 333 260 445 62 82 223 243 318 317 15 11 27 23 27 26 0 10 -154
-54 -263 -110 -125 -64 -224 -135 -348 -251 -116 -109 -184 -198 -360 -471
-164 -255 -286 -431 -349 -501 l-41 -45 36 58 c69 110 100 221 130 450 17 137
20 395 4 535 -27 252 -152 774 -212 889 -14 25 -15 24 -46 -63 -57 -155 -129
-458 -171 -717 -77 -473 -28 -896 136 -1172 55 -93 74 -151 73 -220 -1 -37 -2
-35 -15 22 -15 72 -34 111 -107 225 -151 235 -311 547 -447 870 -83 197 -170
329 -314 474 -102 102 -222 202 -230 193 -2 -2 25 -69 60 -149 35 -80 96 -244
135 -365 140 -433 203 -582 325 -766 95 -143 180 -237 337 -372 264 -228 277
-250 43 -73 -140 105 -246 166 -718 411 -161 83 -201 115 -143 115 14 0 25 2
25 5 0 25 -169 298 -263 425 -81 109 -249 280 -355 360 l-73 55 36 3 c53 5
192 -24 307 -64 108 -37 259 -112 368 -183 35 -23 66 -38 68 -33 10 32 -117
364 -249 645 -48 103 -85 187 -82 187 11 0 128 -75 206 -133 146 -107 233
-187 323 -293 49 -57 92 -104 95 -104 4 0 5 17 3 38 -6 49 -41 531 -48 652
l-6 95 31 -35 c67 -77 291 -462 360 -620 23 -52 45 -99 49 -103 4 -5 15 34 25
85 46 247 91 420 164 637 44 128 81 235 83 237 7 6 128 -346 173 -502 24 -86
61 -231 81 -325 21 -93 40 -169 43 -169 3 1 21 34 40 76 71 154 236 403 350
526 l64 69 -6 232 c-11 385 -41 782 -83 1094 -55 414 -172 955 -324 1503 -27
96 -52 193 -55 215 -7 39 -7 40 10 17 52 -70 233 -535 316 -811 210 -693 306
-1535 270 -2346 -12 -276 -28 -521 -37 -594 l-6 -44 29 22 c15 12 71 51 124
86 l96 64 12 108 c28 258 33 362 38 783 12 974 -57 1560 -272 2325 -38 134
-367 1137 -450 1370 -147 412 -328 770 -573 1131 -205 301 -368 478 -657 709
-105 84 -207 172 -226 196 -20 24 -88 123 -151 219 -161 245 -326 431 -583
659 -292 259 -688 520 -1127 742 -160 81 -517 233 -525 225 -6 -6 124 -88 237
-150 237 -132 651 -407 897 -598 442 -344 776 -705 1004 -1087 95 -159 145
-213 293 -318 167 -118 250 -190 396 -339 149 -153 232 -255 344 -424 253
-381 422 -768 591 -1349 30 -107 54 -199 52 -204 -2 -6 -32 54 -66 134 -336
767 -530 1128 -799 1484 -185 245 -347 404 -557 547 -175 120 -254 204 -339
362 -262 488 -623 848 -1306 1303 -710 472 -1465 825 -2230 1043 -532 151
-890 215 -1540 276 -154 14 -828 27 -940 18z m1500 -369 c294 -27 529 -74 847
-169 296 -89 779 -274 761 -291 -2 -2 -98 25 -213 61 -469 146 -729 198 -1425
284 -179 22 -437 56 -575 75 -137 19 -259 35 -270 36 -14 1 -10 4 10 9 57 15
690 11 865 -5z m-335 -524 c394 -60 758 -178 883 -286 24 -21 67 -68 97 -105
58 -72 110 -105 154 -97 14 3 58 24 96 46 39 22 98 48 133 56 56 15 68 15 122
1 198 -51 944 -420 1435 -711 92 -54 285 -187 285 -196 0 -4 -33 -10 -72 -13
-87 -9 -359 -77 -426 -106 -38 -17 -44 -23 -31 -30 18 -11 165 -24 430 -40
297 -18 448 -51 579 -129 110 -65 319 -264 561 -531 219 -242 245 -299 255
-560 4 -85 11 -163 16 -172 13 -25 30 -23 121 18 98 45 182 55 242 30 96 -40
159 -108 197 -213 16 -46 22 -90 26 -215 l4 -158 77 0 c157 -1 182 -26 384
-400 194 -360 265 -552 274 -740 4 -100 3 -108 -24 -160 -34 -65 -100 -119
-193 -156 -94 -37 -110 -49 -110 -84 0 -39 39 -64 135 -85 108 -25 274 -75
335 -102 l55 -25 -40 -34 c-43 -38 -178 -118 -269 -160 -31 -14 -56 -28 -53
-30 10 -10 128 -26 277 -38 131 -11 175 -18 208 -35 57 -29 108 -76 138 -127
36 -60 77 -236 113 -475 32 -213 76 -674 66 -690 -4 -5 -39 -9 -78 -9 -67 -1
-194 -10 -346 -26 l-65 -7 34 43 c19 23 63 65 98 93 36 28 60 53 53 55 -16 5
-140 -37 -189 -65 -23 -13 -59 -39 -79 -56 l-37 -32 63 121 c34 67 92 158 128
204 35 45 62 84 59 87 -8 8 -135 -64 -185 -105 -54 -44 -99 -106 -127 -173
l-21 -51 -6 83 c-7 94 -26 174 -63 269 -27 70 -113 234 -119 228 -2 -2 7 -62
20 -133 32 -177 45 -284 45 -384 l0 -85 -34 69 c-19 39 -55 93 -80 122 -46 51
-165 147 -173 139 -2 -2 17 -36 43 -76 57 -89 157 -299 135 -286 -4 3 -32 21
-60 41 -63 42 -174 78 -227 73 l-39 -3 65 -35 c55 -30 231 -185 219 -193 -2
-2 -33 -9 -69 -16 -36 -7 -153 -34 -260 -60 -107 -27 -211 -51 -231 -55 l-37
-6 24 82 c14 46 29 108 34 138 5 30 16 71 24 90 8 19 19 69 26 110 6 41 15 89
21 106 14 47 11 147 -6 188 -9 20 -13 41 -10 45 2 5 -4 28 -14 52 -11 24 -27
77 -37 118 -16 69 -16 75 0 105 12 23 15 43 10 79 -6 39 -3 53 13 75 11 15 23
51 26 81 3 29 16 74 29 100 19 38 23 63 23 148 0 57 3 103 6 103 4 0 12 -13
19 -30 29 -71 49 -59 70 45 34 164 38 254 15 315 -10 25 -18 63 -19 86 -2 47
-8 57 -114 179 -76 87 -80 90 -130 96 -38 5 -61 15 -87 38 -20 17 -52 40 -73
50 -20 11 -52 31 -71 45 -24 18 -47 26 -75 26 -23 0 -82 14 -132 32 -88 31
-93 32 -147 19 -42 -10 -63 -11 -84 -3 -53 21 -88 22 -145 7 -42 -11 -64 -12
-81 -4 -16 7 -31 7 -52 -2 -17 -7 -52 -11 -80 -10 -27 1 -72 -5 -99 -14 -42
-14 -57 -15 -112 -4 -52 10 -66 10 -79 -1 -11 -9 -53 -14 -133 -15 -79 -2
-131 -8 -161 -19 -24 -9 -63 -16 -88 -16 -53 0 -86 28 -102 87 -6 21 -17 47
-25 58 -18 23 -20 57 -6 71 7 7 4 37 -10 95 -11 46 -17 98 -14 114 3 17 0 61
-5 100 -6 43 -7 73 -1 80 7 8 1 41 -15 96 -21 69 -23 88 -14 106 10 18 8 37
-11 102 -12 44 -20 88 -16 97 4 10 -6 36 -24 65 -16 27 -30 53 -30 57 0 4 -11
24 -25 44 -21 32 -25 48 -25 116 0 108 -28 187 -90 255 l-47 51 -13 -24 c-7
-13 -15 -61 -18 -107 -3 -46 -9 -86 -13 -89 -5 -3 -23 3 -39 13 -24 14 -33 15
-39 5 -6 -9 -15 -10 -34 -3 -17 7 -28 7 -32 1 -4 -6 -25 -10 -49 -10 -39 0
-44 3 -66 41 -87 143 -110 163 -129 108 -17 -49 -13 -107 12 -181 l23 -66 -34
-27 c-62 -50 -79 -135 -26 -135 13 0 24 -4 24 -8 0 -14 -59 -93 -103 -139 -23
-24 -42 -54 -43 -70 -2 -15 -6 -42 -10 -59 -11 -57 39 -117 116 -139 14 -4 51
-18 83 -32 60 -27 69 -43 45 -86 -7 -12 -15 -47 -19 -77 -4 -30 -10 -79 -14
-107 -6 -37 -4 -57 5 -68 10 -12 8 -30 -11 -95 -20 -70 -21 -83 -9 -105 12
-23 11 -34 -8 -94 -25 -75 -28 -111 -11 -128 9 -9 8 -32 -1 -92 -11 -71 -10
-84 3 -105 11 -17 16 -47 16 -98 0 -42 6 -91 15 -113 8 -22 20 -71 26 -109 12
-73 28 -114 54 -135 10 -8 16 -29 16 -53 0 -48 11 -70 61 -125 22 -24 39 -51
39 -60 0 -10 8 -31 19 -48 27 -44 161 -185 176 -185 7 0 25 -16 40 -36 17 -22
33 -33 42 -30 8 3 45 -11 81 -33 37 -21 115 -62 174 -90 107 -52 153 -91 163
-134 2 -12 11 -52 19 -88 9 -36 16 -81 16 -100 0 -19 5 -40 10 -45 6 -6 15
-67 21 -135 10 -123 18 -168 44 -244 8 -22 17 -97 20 -166 l6 -126 -72 -6
c-40 -3 -74 -5 -75 -4 -1 1 4 45 12 97 31 220 36 268 31 315 -3 28 -10 97 -15
155 -10 101 -60 307 -88 362 -10 19 -39 39 -98 67 -45 22 -113 58 -151 81 -37
22 -70 40 -74 38 -4 -2 -1 -39 6 -83 8 -44 16 -98 19 -120 3 -22 9 -49 14 -60
26 -57 39 -112 33 -151 -3 -26 -1 -44 6 -48 6 -4 11 -20 11 -35 0 -15 5 -32
12 -39 7 -7 11 -33 9 -62 -1 -30 3 -57 10 -66 7 -9 17 -39 22 -67 10 -60 21
-312 14 -331 -4 -10 -90 1 -363 46 -197 32 -359 60 -360 61 -2 1 -6 119 -10
261 l-7 258 -34 47 c-51 71 -73 121 -73 174 0 59 20 187 30 187 4 0 12 -12 19
-27 12 -27 13 -27 27 -8 33 45 43 137 22 209 -34 112 -235 226 -399 226 -30 0
-121 -14 -204 -30 -172 -34 -186 -35 -224 -15 -41 21 -59 75 -87 261 -13 89
-28 174 -34 189 -5 14 -10 38 -10 53 0 38 -44 128 -69 142 -31 16 -41 5 -41
-46 0 -44 0 -44 -36 -44 -29 0 -46 9 -86 45 -28 25 -54 45 -59 45 -16 0 -9
-52 12 -90 l21 -37 -21 -42 c-12 -23 -46 -66 -76 -96 -48 -47 -55 -59 -55 -92
1 -47 23 -64 101 -81 95 -21 99 -27 99 -140 0 -210 68 -456 145 -528 31 -28
65 -96 65 -129 0 -14 -14 -72 -31 -128 -26 -85 -31 -122 -34 -222 -3 -129 -26
-252 -53 -285 -28 -34 -210 -61 -447 -67 -110 -2 -218 -1 -240 4 -39 9 -40 10
-59 78 -18 62 -19 100 -18 340 3 317 20 499 55 554 12 20 45 70 73 111 28 41
54 93 58 115 4 21 14 51 21 65 53 102 64 473 24 773 -10 74 -10 90 2 101 22
21 77 36 130 36 41 0 51 4 73 31 35 41 38 122 5 140 -43 23 -109 92 -109 114
0 25 -47 92 -72 100 -15 5 -15 9 3 50 23 53 37 145 21 145 -5 0 -37 -31 -70
-68 -107 -121 -137 -120 -127 6 7 83 -2 90 -54 46 -46 -38 -79 -101 -90 -171
-5 -34 -21 -82 -35 -106 -14 -24 -26 -49 -26 -56 0 -7 -8 -31 -19 -54 -16 -36
-19 -70 -20 -237 -1 -107 -6 -212 -12 -234 -6 -21 -8 -44 -5 -52 3 -7 -3 -37
-13 -66 -22 -67 -65 -94 -123 -77 -38 10 -140 21 -193 21 -16 -1 -41 3 -55 8
-28 11 -142 20 -300 25 -112 4 -119 2 -250 -65 -30 -15 -69 -31 -86 -34 -41
-9 -134 -106 -168 -175 -31 -65 -35 -148 -10 -232 21 -71 31 -80 45 -41 16 47
26 32 34 -50 3 -40 12 -95 20 -123 34 -126 37 -162 21 -226 -9 -33 -33 -91
-54 -127 -36 -66 -37 -69 -35 -163 2 -53 7 -127 13 -165 5 -38 10 -108 10
-155 0 -47 6 -106 14 -131 l13 -45 -86 -7 c-161 -12 -159 -12 -166 -65 -11
-79 -44 -189 -75 -251 -36 -72 -75 -118 -151 -175 -56 -44 -57 -46 -134 -227
-43 -101 -106 -239 -140 -308 -145 -289 -175 -467 -118 -703 20 -85 26 -140
27 -228 l1 -116 -52 -104 c-29 -57 -61 -138 -72 -179 -11 -41 -47 -174 -80
-295 -33 -121 -69 -258 -81 -304 -25 -101 -47 -145 -92 -188 -27 -26 -93 -63
-112 -63 -4 0 44 122 67 166 8 16 27 81 41 144 45 188 143 551 171 629 15 40
44 109 66 154 49 101 49 121 4 347 -29 148 -35 195 -34 305 0 99 3 123 11 103
5 -16 13 -28 18 -28 8 0 25 86 35 185 3 33 9 78 12 100 l6 40 17 -40 17 -40
15 36 c9 20 23 69 32 110 9 41 28 107 43 148 26 73 26 73 43 51 9 -13 20 -19
22 -14 3 5 22 60 42 123 49 152 95 341 103 421 9 101 19 102 33 4 7 -49 16
-102 20 -119 7 -30 7 -30 37 30 17 33 38 87 48 120 l18 60 10 -45 10 -45 14
35 c55 129 70 340 34 444 -25 70 -25 66 -6 66 21 0 19 8 -20 101 -60 138 -105
217 -151 259 -24 22 -44 49 -44 60 0 31 -70 75 -160 101 -44 12 -79 25 -77 28
41 73 61 137 78 246 45 301 97 559 145 719 25 84 35 132 31 158 -3 21 -31 84
-62 139 -32 55 -73 136 -92 180 -34 78 -73 232 -62 244 3 3 22 -2 42 -10 20
-8 64 -15 98 -15 51 0 72 6 115 30 46 26 54 28 62 14 7 -13 15 -8 45 25 20 23
37 48 37 56 0 41 48 -8 84 -85 14 -30 26 -64 26 -75 1 -44 16 -49 42 -14 14
19 29 43 33 54 6 17 9 13 16 -20 30 -143 43 -202 49 -214 19 -37 100 110 100
181 0 20 4 28 9 23 5 -6 11 -67 13 -137 2 -80 7 -131 15 -139 31 -31 149 100
174 194 11 40 8 183 -5 252 -4 18 9 0 29 -43 20 -40 40 -70 45 -67 5 3 14 31
21 63 14 69 1 149 -37 224 -26 51 -25 55 8 37 18 -10 19 -8 13 13 -23 72 -83
168 -144 229 -65 65 -130 103 -244 144 -40 14 -57 29 -98 86 -95 130 -297 300
-455 381 -257 133 -589 149 -849 41 -138 -58 -213 -119 -387 -315 -97 -109
-167 -134 -239 -85 -56 37 -82 98 -87 197 -5 106 6 154 93 380 93 243 128 382
122 485 -12 194 -113 315 -264 315 -75 0 -118 -22 -216 -111 -40 -37 -97 -78
-128 -92 -64 -31 -114 -79 -106 -101 5 -13 22 -16 79 -16 103 0 194 -17 255
-46 41 -20 56 -34 73 -69 34 -70 18 -132 -93 -370 -125 -268 -152 -366 -151
-555 1 -248 82 -451 244 -609 67 -66 166 -123 178 -103 6 9 28 -1 84 -38 115
-77 289 -138 348 -123 20 5 20 5 0 31 -11 14 -18 27 -16 29 2 3 37 -2 78 -11
40 -8 98 -18 128 -21 l55 -6 122 -137 c192 -215 227 -270 259 -393 21 -83 14
-210 -17 -298 -25 -73 -200 -420 -264 -526 l-43 -70 -119 3 c-68 2 -143 -2
-177 -9 -52 -11 -59 -10 -68 4 -8 14 -13 15 -31 5 -14 -8 -68 -13 -147 -14
-99 -1 -154 -7 -265 -32 -77 -16 -169 -30 -205 -30 -45 0 -88 -8 -139 -26 -41
-14 -78 -26 -83 -26 -4 0 -8 12 -8 26 0 21 -4 25 -17 21 -74 -24 -220 -67
-231 -67 -8 0 -10 8 -6 26 6 22 4 25 -12 20 -53 -16 -192 -46 -216 -46 -21 0
-25 4 -21 20 6 24 2 25 -99 4 -73 -15 -85 -15 -143 0 -61 15 -68 15 -147 -4
-46 -11 -94 -20 -108 -20 -83 0 -157 53 -209 149 -36 68 -39 81 -11 56 11 -10
23 -16 26 -13 2 3 -11 43 -30 89 -30 74 -46 127 -71 234 l-7 30 26 -24 c14
-14 29 -22 32 -19 4 5 -11 87 -50 261 -4 18 -4 18 15 1 10 -9 22 -15 25 -11 3
3 -2 62 -12 132 -15 105 -15 128 -4 135 11 7 8 32 -13 142 -15 73 -30 144 -34
158 -6 25 -6 25 15 6 22 -19 22 -19 22 9 0 15 -16 75 -36 132 -33 95 -35 105
-19 116 15 12 15 16 -3 57 -10 25 -29 75 -41 112 -12 37 -33 83 -47 103 -13
20 -24 38 -24 40 0 2 12 5 26 7 l25 3 -30 40 c-17 22 -31 47 -31 54 0 8 -30
45 -67 83 -38 37 -76 75 -85 85 -9 10 -30 30 -47 45 -22 21 -33 43 -41 85 -36
185 -127 331 -274 441 -40 31 -46 28 -46 -21 0 -37 48 -290 66 -349 3 -10 1
-18 -4 -18 -12 0 -190 200 -265 299 -33 42 -64 76 -70 76 -19 0 -27 -59 -17
-130 12 -91 43 -180 85 -246 l34 -54 -56 -3 c-44 -2 -56 -7 -60 -22 -3 -11
-18 -21 -40 -25 -43 -8 -83 -25 -83 -37 0 -4 7 -8 15 -8 21 0 19 -17 -3 -24
-10 -4 -35 -23 -55 -44 l-38 -38 22 -28 c13 -16 18 -31 12 -34 -5 -4 -26 -20
-47 -37 -21 -16 -111 -66 -199 -110 -131 -65 -166 -87 -185 -115 -17 -26 -22
-43 -17 -65 8 -40 8 -60 0 -128 l-8 -58 58 -52 c32 -29 67 -57 79 -64 27 -15
114 -16 171 -2 39 10 51 8 97 -11 29 -12 109 -39 178 -59 114 -35 125 -40 122
-60 -2 -12 2 -37 8 -55 11 -35 9 -52 -38 -224 -20 -73 -20 -74 -1 -69 23 6 24
-1 4 -27 -19 -26 -19 -36 1 -36 14 0 15 -3 2 -22 -15 -24 -78 -199 -78 -217 0
-6 7 -8 15 -5 23 9 19 -27 -14 -125 -16 -47 -32 -106 -36 -131 l-7 -45 26 24
c29 27 34 15 11 -29 -16 -31 -65 -212 -65 -241 0 -13 5 -17 16 -12 14 5 16 2
9 -23 -26 -102 -43 -244 -28 -244 4 0 18 10 31 23 l25 22 -6 -41 c-20 -128
-29 -262 -24 -358 3 -59 8 -111 11 -114 3 -3 15 3 26 13 20 18 20 18 20 -38 0
-110 39 -317 76 -406 l14 -34 24 22 23 22 7 -49 c12 -90 88 -289 117 -307 6
-4 13 2 16 14 9 33 17 25 30 -30 21 -89 101 -227 145 -250 17 -9 18 -7 12 31
-4 22 -4 40 -1 40 3 0 22 -24 43 -52 76 -105 218 -238 253 -238 7 0 7 8 1 26
-6 14 -10 27 -10 30 0 21 391 -246 424 -289 61 -79 134 -334 206 -710 24 -126
45 -195 110 -372 58 -158 73 -229 96 -454 20 -208 16 -315 -17 -391 -12 -30
-23 -56 -24 -58 -1 -1 -40 6 -86 16 -94 21 -91 15 -51 112 l27 65 3 326 3 325
-44 135 c-45 133 -76 260 -97 394 -13 84 -90 354 -132 462 -16 43 -40 92 -54
110 -22 30 -264 198 -264 184 0 -3 25 -85 56 -181 83 -262 124 -450 124 -577
1 -79 33 -220 75 -323 48 -119 66 -234 72 -451 6 -203 -7 -355 -36 -441 -18
-51 -19 -53 -52 -50 -19 2 -92 4 -164 4 -127 1 -135 0 -375 -60 -135 -34 -276
-67 -314 -73 l-70 -12 -23 29 c-41 51 -92 167 -103 234 -12 76 -13 151 -2 165
4 6 93 11 221 13 188 2 227 5 325 28 61 14 143 32 181 40 98 21 125 39 158
105 21 42 29 73 30 120 l2 64 -66 0 c-71 1 -110 19 -161 72 -24 25 -118 212
-118 234 0 5 11 27 24 47 47 74 105 302 77 302 -14 0 -112 -50 -157 -80 l-32
-21 -7 71 c-4 38 -11 73 -16 76 -5 3 -50 -25 -100 -61 -50 -36 -94 -65 -98
-65 -4 0 -43 20 -87 45 -109 63 -227 98 -513 155 -377 74 -470 85 -736 85
-249 0 -318 -9 -480 -62 -159 -52 -249 -103 -357 -202 -31 -28 -60 -51 -66
-51 -6 0 -6 15 0 43 13 65 -7 117 -54 140 -32 16 -43 17 -73 7 -83 -28 -103
-125 -43 -212 18 -26 18 -27 -1 -37 -11 -6 -44 -14 -73 -19 l-53 -7 23 -23
c27 -27 89 -30 158 -6 65 22 72 12 51 -78 -21 -90 -22 -234 -2 -313 20 -79 40
-126 92 -210 47 -75 53 -116 28 -164 -28 -54 -33 -105 -19 -182 7 -41 13 -101
14 -134 0 -33 7 -77 15 -99 l13 -38 -41 6 c-23 4 -68 9 -100 13 -48 5 -57 9
-51 22 8 21 74 214 74 218 0 12 -54 -29 -107 -80 -71 -68 -72 -67 -48 53 18
90 31 366 18 398 -8 20 -13 10 -37 -70 -15 -51 -42 -138 -59 -193 l-32 -100
-6 100 c-8 111 -29 226 -61 325 -21 65 -87 204 -95 197 -2 -2 4 -35 13 -73 14
-61 39 -502 29 -513 -2 -1 -9 17 -15 40 -6 24 -28 94 -49 154 -48 136 -65 212
-86 385 -28 214 -16 402 60 967 l6 42 70 21 c138 41 256 61 443 75 225 16 289
28 499 94 216 68 325 85 496 78 202 -8 351 -31 601 -92 250 -61 357 -79 570
-95 80 -6 219 -18 309 -26 90 -8 166 -12 168 -10 5 5 -61 43 -156 90 -101 51
-195 73 -365 86 -80 6 -170 17 -201 25 -31 9 -130 51 -218 95 -169 83 -281
120 -369 120 l-49 0 75 60 c41 33 137 120 215 194 142 136 250 217 334 252 26
10 47 23 47 28 0 5 -37 6 -82 3 -159 -10 -306 -80 -502 -236 -123 -99 -215
-165 -273 -194 -20 -11 12 27 90 106 106 106 135 142 217 275 199 322 267 410
387 504 35 28 62 52 60 55 -6 6 -170 -58 -243 -95 -87 -44 -210 -138 -284
-219 -51 -55 -79 -99 -134 -209 -62 -127 -145 -266 -166 -279 -4 -3 18 46 49
108 73 143 103 238 147 467 46 242 124 544 170 664 29 74 -110 -112 -216 -290
-108 -180 -178 -324 -238 -484 -88 -235 -100 -250 -62 -75 29 130 55 204 120
341 l57 121 -5 119 c-3 77 2 170 12 263 10 79 15 145 12 148 -9 10 -38 -61
-117 -289 -107 -306 -130 -384 -170 -563 -21 -93 -35 -139 -37 -121 -5 45 26
213 63 347 l34 120 -25 152 c-40 246 -94 540 -103 562 -20 50 -114 -560 -131
-854 -1 -3 -18 62 -39 144 -39 151 -99 327 -142 420 l-23 50 -3 -35 c-2 -19 0
-138 5 -265 l8 -230 61 -95 c168 -264 232 -431 288 -750 41 -238 30 -219 -63
110 -78 275 -144 439 -241 602 -101 169 -386 525 -406 506 -3 -3 9 -41 28 -85
80 -182 131 -337 178 -538 27 -115 61 -250 75 -300 27 -96 104 -266 151 -337
45 -66 75 -118 69 -118 -3 0 -58 50 -123 111 -134 126 -225 190 -368 259 -186
90 -317 118 -474 100 -47 -5 -87 -7 -90 -5 -14 14 81 658 129 870 39 175 94
343 131 398 57 85 107 107 429 182 136 31 167 42 154 54 -5 5 -63 21 -129 36
-221 49 -293 83 -322 153 -13 31 -13 43 1 104 9 38 41 127 72 196 31 70 80
189 110 265 66 169 152 339 200 395 55 65 84 76 175 68 110 -9 107 -16 101
201 -6 215 5 307 54 453 62 188 120 269 417 579 237 249 353 396 539 686 130
201 199 267 342 320 77 28 141 39 391 65 254 26 637 80 649 91 5 5 7 11 3 15
-10 11 -125 32 -318 59 -101 14 -205 32 -230 39 -113 34 -169 82 -169 143 0
30 10 45 67 102 70 69 338 281 523 413 145 104 508 338 665 429 297 172 587
312 796 382 265 90 691 129 1052 95 93 -9 130 -9 138 -1 21 21 -1 65 -63 129
-33 34 -57 67 -54 72 9 15 99 48 266 98 250 74 331 74 518 3 160 -60 210 -62
387 -9 408 123 527 141 900 135 184 -3 284 -9 380 -24z m3529 -1054 c144 -85
425 -280 556 -386 126 -102 315 -285 407 -395 110 -130 168 -212 274 -381 51
-83 114 -170 140 -195 25 -25 93 -72 150 -104 219 -124 310 -219 420 -439 39
-77 89 -198 89 -215 0 -4 -16 22 -36 58 -64 115 -156 240 -230 315 -77 76
-174 134 -319 189 -38 14 -92 39 -120 54 -54 29 -55 31 -174 253 -232 430
-488 686 -1251 1246 -107 79 -206 153 -220 164 -36 28 174 -81 314 -164z
m-10617 -1730 c-31 -45 -138 -170 -237 -277 -209 -224 -319 -365 -444 -569
-162 -265 -235 -426 -377 -828 -119 -339 -211 -656 -289 -993 -150 -645 -187
-1024 -177 -1790 3 -234 9 -438 12 -455 4 -21 3 -25 -3 -15 -11 18 -55 251
-76 405 -25 178 -36 364 -36 605 0 391 29 649 116 1045 137 625 268 1021 509
1550 244 536 437 836 702 1097 108 106 346 317 352 312 3 -2 -21 -41 -52 -87z
m5440 -2281 c8 -139 -60 -567 -119 -741 -22 -67 -25 -71 -64 -83 -37 -12 -47
-11 -100 9 -33 11 -91 33 -130 46 l-72 26 65 136 c156 325 235 482 283 561 73
117 93 164 86 203 -5 26 -1 22 20 -22 20 -39 28 -75 31 -135z m6137 -392 c-9
-33 -35 -106 -57 -163 l-40 -104 10 -106 c12 -119 30 -179 55 -187 13 -4 18
-16 18 -40 0 -38 39 -123 70 -154 11 -11 22 -32 26 -47 4 -16 28 -66 54 -113
98 -176 94 -159 87 -332 -4 -84 -12 -182 -19 -218 l-13 -65 -93 -3 c-60 -2
-92 1 -92 8 0 6 16 51 35 100 19 49 35 94 35 99 0 5 14 49 30 98 17 48 33 118
36 155 6 56 4 70 -13 95 -11 15 -74 137 -141 271 -117 233 -122 246 -128 322
l-7 80 -21 -23 c-35 -38 -138 -110 -176 -123 -46 -16 -61 -53 -37 -93 9 -16
17 -41 17 -55 0 -15 8 -43 19 -64 10 -20 22 -53 26 -72 4 -19 15 -46 25 -60
10 -14 31 -52 48 -85 16 -33 40 -69 52 -80 12 -11 31 -37 42 -58 17 -34 18
-47 9 -120 -25 -209 -58 -361 -82 -383 -16 -15 -51 -16 -323 -12 -168 2 -308
7 -312 11 -4 4 0 44 9 89 10 46 22 114 28 153 6 45 17 76 29 87 14 13 18 26
14 47 -4 18 0 38 11 55 12 18 16 38 12 65 -3 22 -1 43 5 49 6 6 6 41 0 98 -8
64 -7 94 1 109 11 18 16 99 16 234 l0 54 48 -6 c34 -3 54 0 72 11 14 9 46 17
72 18 28 0 69 11 101 26 29 14 78 36 108 49 30 13 74 42 98 64 52 47 155 200
208 307 21 43 40 76 42 74 2 -2 -4 -30 -14 -62z m-4781 -398 c59 -29 145 -47
230 -49 88 -3 88 -3 82 -237 -6 -262 -7 -248 11 -283 14 -26 15 -50 8 -156 -9
-146 -9 -164 -3 -211 l4 -35 -195 4 c-131 2 -197 7 -202 15 -19 28 -53 132
-85 260 -33 132 -34 142 -23 198 8 38 25 75 47 103 63 83 153 272 153 321 0 7
-31 33 -68 57 -59 38 -112 96 -112 122 0 4 23 -14 51 -39 27 -25 74 -56 102
-70z m579 -582 c4 -6 16 -78 27 -161 11 -82 25 -162 31 -177 20 -54 17 -56
-79 -56 -72 0 -90 3 -95 16 -18 46 4 245 44 404 10 41 23 136 29 210 17 209
26 203 31 -20 3 -113 8 -210 12 -216z m-823 335 c-17 -35 -50 -91 -72 -123
-54 -79 -53 -122 1 -271 22 -60 53 -150 70 -200 16 -49 32 -98 37 -107 7 -17
-2 -18 -98 -18 -78 0 -108 4 -116 14 -27 32 -35 131 -23 281 13 169 26 207
111 319 29 38 66 93 83 123 42 74 47 60 7 -18z m2347 9 c12 -42 73 -158 114
-218 36 -53 40 -65 40 -122 0 -91 -43 -281 -72 -321 -12 -16 -25 -17 -134 -11
l-121 7 -6 101 c-11 179 22 511 55 553 8 10 68 29 105 32 6 1 15 -9 19 -21z
m-322 -265 c3 -50 11 -114 20 -144 22 -80 32 -248 14 -253 -7 -3 -53 -7 -102
-11 l-89 -6 7 23 c3 13 15 75 27 138 11 63 29 140 40 170 21 61 73 179 77 176
1 -2 4 -43 6 -93z m660 -42 c39 -74 73 -309 55 -374 -9 -34 -13 -38 -37 -33
-15 3 -58 8 -95 12 -58 6 -67 9 -62 24 47 148 105 359 105 382 0 34 13 30 34
-11z m-9287 -463 c-3 -7 -5 -2 -5 12 0 14 2 19 5 13 2 -7 2 -19 0 -25z m10
-65 c-3 -10 -5 -2 -5 17 0 19 2 27 5 18 2 -10 2 -26 0 -35z m9291 -18 c147
-24 366 -58 487 -75 121 -17 224 -34 229 -37 5 -3 -24 -15 -65 -25 -119 -31
-182 -71 -299 -189 -110 -112 -169 -151 -257 -169 -27 -6 -181 -12 -343 -14
-237 -2 -309 -6 -367 -20 -40 -10 -75 -21 -78 -26 -3 -4 26 -11 63 -15 205
-21 311 -59 384 -136 81 -86 168 -282 259 -579 58 -193 59 -196 53 -115 -24
291 -99 591 -179 710 -24 36 -38 65 -31 65 26 0 134 -32 185 -56 155 -70 266
-235 366 -539 63 -188 101 -394 154 -820 32 -253 36 -335 20 -335 -8 0 -40
-13 -71 -29 -69 -35 -58 -59 -88 189 -28 223 -73 503 -106 650 -28 122 -46
173 -38 105 24 -216 71 -1031 60 -1042 -3 -4 -39 16 -79 44 -94 66 -137 83
-221 91 l-70 7 -28 165 c-29 170 -92 464 -108 503 -11 28 -12 -186 0 -473 8
-210 8 -215 -12 -233 -12 -10 -22 -16 -24 -15 -1 2 -12 80 -24 173 -84 665
-167 1067 -258 1250 -26 54 -83 137 -89 132 -2 -2 13 -62 32 -133 63 -229 80
-362 120 -969 14 -209 30 -425 35 -480 13 -148 14 -148 -173 -70 -111 46 -205
56 -291 31 -32 -10 -59 -16 -60 -14 -2 2 -12 80 -25 173 -26 204 -71 432 -112
574 -29 102 -68 205 -75 198 -2 -2 1 -29 6 -61 22 -134 40 -365 60 -769 8
-158 8 -212 -1 -223 -20 -25 -84 -16 -156 20 -83 42 -137 55 -229 56 l-71 0
-7 98 c-29 417 -93 895 -157 1182 -67 293 -113 397 -238 533 l-63 67 62 0
c101 0 401 -20 464 -31 96 -17 161 -52 232 -124 53 -54 75 -88 128 -198 79
-161 128 -316 191 -592 79 -347 75 -341 70 -100 -8 372 -75 695 -191 916 -43
82 -92 127 -189 175 -97 48 -186 57 -557 58 l-308 1 -90 93 c-64 66 -105 100
-144 118 -32 14 -145 43 -277 69 -300 60 -355 81 -491 180 l-56 42 256 12
c320 15 974 19 1402 7 320 -8 328 -8 505 18 99 14 230 30 290 36 61 5 126 12
145 14 91 11 286 -7 538 -49z m-11002 -389 c29 -279 78 -629 134 -946 49 -282
65 -416 90 -755 18 -236 39 -432 55 -515 9 -45 -11 0 -49 108 -85 246 -168
693 -252 1362 -18 145 -32 912 -18 1007 8 55 9 56 11 18 2 -22 15 -148 29
-279z m6283 79 c-80 -338 -90 -440 -64 -605 32 -197 85 -340 250 -675 62 -126
120 -252 129 -280 39 -121 39 -262 1 -505 -24 -155 -83 -431 -106 -497 -24
-70 -79 -153 -125 -188 l-33 -26 -151 37 c-82 19 -152 40 -155 45 -3 5 13 36
35 70 46 67 81 140 158 329 28 69 92 213 143 320 188 398 182 372 114 521 -24
54 -49 118 -56 141 -6 24 -22 58 -36 76 -14 18 -36 61 -49 94 -13 33 -32 75
-43 93 -10 18 -22 48 -26 66 -4 19 -18 44 -31 55 -15 14 -25 38 -29 70 -3 27
-15 81 -26 119 -15 48 -23 111 -26 203 -3 72 -8 132 -12 132 -3 0 -45 -34 -91
-75 -47 -41 -120 -98 -162 -127 -43 -29 -79 -58 -82 -64 -7 -17 20 -163 49
-262 15 -51 48 -139 74 -195 27 -56 51 -113 55 -127 5 -14 32 -77 61 -140 60
-129 85 -214 85 -287 0 -91 -79 -349 -194 -633 -102 -251 -153 -317 -270 -343
-33 -8 -62 -13 -64 -12 -6 5 98 173 137 223 37 47 39 51 16 42 -50 -19 -91
-43 -137 -82 -27 -22 -48 -38 -48 -35 0 3 14 47 30 97 33 102 97 243 130 290
33 46 4 38 -67 -20 -65 -53 -144 -160 -173 -237 l-17 -46 -7 34 c-14 79 -18
407 -7 524 12 110 34 254 47 298 3 9 1 17 -4 17 -14 0 -97 -176 -125 -266 -41
-130 -57 -238 -64 -417 l-6 -169 -17 55 c-37 118 -134 264 -235 351 -59 51
-67 50 -35 -2 44 -71 200 -477 200 -518 0 -4 -26 19 -57 51 -39 39 -81 69
-128 91 -38 18 -71 31 -73 29 -2 -2 17 -28 42 -59 25 -31 63 -93 85 -139 50
-104 56 -126 39 -131 -38 -11 -281 -66 -283 -64 -2 2 6 45 17 97 21 103 21 99
-23 336 -30 164 -33 450 -5 538 14 46 16 74 11 129 -7 68 -7 70 13 59 16 -8
21 -7 26 5 11 27 6 117 -9 179 -18 77 -19 75 5 75 31 0 34 22 16 119 -20 111
-20 121 0 121 18 0 18 2 -2 228 l-7 72 41 -14 c51 -18 156 -31 172 -21 8 5 7
14 -5 32 -9 14 -15 26 -13 28 2 1 37 -3 78 -11 125 -22 217 -16 205 15 -4 9
-9 21 -11 26 -2 6 22 11 58 13 87 4 201 29 214 46 6 8 42 31 80 52 79 41 194
122 272 190 110 97 193 231 267 435 57 155 67 180 71 177 1 -2 -15 -80 -37
-173z m6430 65 c185 0 16 -36 -444 -95 -148 -19 -297 -41 -330 -50 -68 -18
-185 -70 -185 -82 0 -4 55 -27 123 -51 67 -24 160 -57 206 -74 72 -25 98 -30
180 -30 53 0 92 -1 86 -3 -5 -3 -81 -22 -167 -44 -299 -75 -349 -122 -408
-383 -30 -135 -58 -228 -66 -228 -3 0 -2 9 1 21 4 12 7 100 7 198 -1 162 1
180 22 227 28 61 92 119 164 148 30 11 55 25 55 31 3 15 -62 54 -116 70 -61
18 -173 19 -359 3 -76 -6 -142 -8 -146 -3 -10 10 138 146 221 202 120 80 236
108 552 133 77 6 160 12 185 14 25 2 110 2 190 0 80 -2 183 -4 229 -4z m1886
-10 c-3 -5 -13 -10 -22 -10 -24 0 -455 -146 -505 -170 -24 -12 -74 -46 -113
-74 -38 -29 -134 -96 -212 -150 -78 -53 -156 -114 -173 -134 -38 -47 -94 -154
-155 -301 -58 -138 -128 -245 -199 -306 -68 -58 -80 -58 -26 1 65 71 115 189
166 396 25 102 60 214 80 256 18 41 34 76 34 78 0 16 -267 -29 -372 -62 -95
-30 -237 -122 -304 -197 -55 -61 -54 -59 45 103 88 144 129 188 215 230 87 43
172 59 358 69 180 9 183 10 467 131 182 76 343 113 616 139 50 4 94 9 98 10 5
0 5 -3 2 -9z m-13924 -86 c76 -23 174 -74 314 -163 66 -43 166 -104 222 -136
57 -32 101 -60 99 -63 -2 -2 -18 4 -36 13 -94 49 -299 70 -422 44 -73 -16
-248 -106 -248 -129 0 -4 21 -3 48 1 77 13 178 10 260 -7 67 -14 303 -99 341
-123 8 -5 -46 -10 -135 -13 -165 -6 -298 -34 -471 -101 l-88 -34 -7 166 c-3
91 -11 250 -17 354 -7 103 -9 192 -6 197 9 15 85 12 146 -6z m7614 -64 c207
-29 314 -49 345 -65 56 -29 107 -94 141 -178 28 -70 42 -90 97 -142 193 -178
210 -207 242 -397 19 -113 52 -419 46 -425 -2 -2 -22 77 -45 175 -51 210 -88
310 -140 383 -45 64 -175 161 -261 195 -32 13 -217 55 -411 94 -193 38 -355
73 -358 76 -7 8 593 -4 657 -12 27 -4 42 -2 42 5 0 18 -128 118 -199 154 -36
19 -105 49 -153 65 -47 17 -109 42 -137 56 -56 29 -78 52 -40 43 13 -3 92 -15
174 -27z m4540 -796 c-35 -28 -177 -93 -305 -139 -68 -25 -141 -56 -162 -70
-81 -54 -116 -190 -128 -495 -7 -183 -11 -217 -39 -320 -17 -63 -37 -119 -43
-125 -8 -7 -9 -5 -4 9 4 11 11 180 16 375 6 196 13 389 17 430 l6 74 -32 -22
c-50 -36 -81 -85 -111 -174 -34 -102 -58 -150 -124 -247 -28 -41 -65 -102 -83
-135 -18 -33 -33 -58 -33 -55 -1 19 63 360 79 425 12 44 40 118 63 165 35 69
52 91 89 116 61 40 177 78 340 109 110 22 451 89 469 93 3 1 -4 -6 -15 -14z
m-4560 -489 c31 -215 42 -426 26 -520 -11 -66 -72 -290 -82 -299 -2 -3 -38 61
-78 141 l-74 145 6 187 c6 180 20 313 52 505 23 134 56 300 63 311 7 11 51
-230 87 -470z m-396 87 c26 -53 65 -138 85 -188 l36 -91 -7 -124 -6 -123 -54
60 c-71 78 -100 122 -107 164 -5 32 -36 415 -36 450 0 20 29 -29 89 -148z
m662 -50 l-9 -192 -73 -122 -74 -122 -8 118 c-6 94 -4 130 8 179 27 104 145
350 161 335 2 -3 0 -91 -5 -196z m403 46 c-5 -7 -33 -49 -63 -93 -108 -158
-171 -312 -296 -720 -44 -143 -111 -283 -189 -394 -31 -44 -61 -83 -65 -85 -5
-3 -11 23 -15 57 -3 34 -13 86 -21 116 -13 49 -12 63 6 150 57 280 226 602
413 786 54 53 224 195 234 195 2 0 0 -6 -4 -12z m-1396 -183 c38 -55 80 -121
95 -146 37 -65 152 -325 186 -423 30 -86 85 -319 79 -338 -6 -18 -128 158
-184 266 -84 160 -150 322 -235 575 -43 129 -79 237 -79 240 1 13 74 -79 138
-174z m-6558 76 c0 -49 -13 -69 -34 -52 -19 16 -22 87 -3 94 24 8 37 -6 37
-42z m6997 -556 c111 -148 212 -368 239 -515 17 -94 18 -233 2 -277 -7 -18
-14 -33 -18 -33 -3 0 -29 31 -58 68 -80 102 -118 187 -158 357 -52 220 -107
384 -174 525 l-60 125 88 -90 c48 -49 111 -121 139 -160z m1072 153 c-44 -51
-114 -135 -154 -188 -64 -83 -138 -158 -277 -279 l-38 -33 49 111 c27 62 62
133 77 159 34 58 112 142 178 190 47 35 222 131 239 132 4 0 -29 -41 -74 -92z
m-1685 -7 c56 -38 122 -91 147 -118 41 -47 165 -250 157 -258 -7 -8 -207 130
-226 155 -33 44 -192 290 -186 290 2 0 51 -31 108 -69z m5861 -18 c53 -64 92
-137 97 -177 2 -23 -6 -36 -49 -72 l-51 -45 -31 45 c-34 49 -80 89 -123 105
-27 10 -27 10 -13 51 23 64 86 150 111 150 7 0 34 -26 59 -57z m364 -79 c16
-47 24 -94 25 -148 1 -73 -1 -80 -24 -95 -14 -9 -44 -33 -66 -53 -23 -21 -44
-38 -47 -38 -3 0 -9 15 -12 33 -10 42 -48 117 -79 154 l-26 31 44 60 c45 61
131 135 150 129 6 -2 22 -34 35 -73z m-736 -76 c31 -11 60 -24 62 -28 3 -4 -4
-43 -15 -85 -11 -43 -20 -100 -20 -127 0 -26 -2 -48 -4 -48 -10 0 -121 72
-128 82 -9 15 -11 183 -2 216 7 25 10 25 107 -10z m1033 -68 c-7 -81 -48 -234
-66 -245 -6 -4 -10 26 -10 78 0 94 -2 97 -71 97 l-39 0 0 45 c0 42 2 46 40 65
39 20 98 37 134 39 18 1 18 -5 12 -79z m-4901 -188 c-151 -150 -245 -235 -300
-271 -93 -61 -264 -146 -314 -156 l-34 -7 64 77 c117 142 355 350 500 436 45
27 283 137 299 138 3 0 -94 -97 -215 -217z m4054 193 c31 -16 131 -121 131
-137 0 -18 -45 -128 -52 -128 -4 0 -19 16 -34 35 -35 47 -58 45 -78 -5 -9 -22
-16 -47 -16 -55 0 -8 -4 -15 -9 -15 -16 0 -34 101 -28 159 6 50 43 161 54 161
2 0 17 -7 32 -15z m-5701 -67 c271 -111 455 -261 661 -538 54 -74 98 -137 96
-139 -7 -7 -150 41 -225 75 -120 56 -205 129 -369 317 -82 95 -190 212 -240
260 -102 98 -103 98 77 25z m6058 -134 c17 -65 15 -126 -8 -167 -10 -19 -11
-18 -23 16 -17 49 -40 83 -70 103 -33 21 -48 14 -82 -38 -25 -39 -28 -41 -31
-19 -5 33 51 141 100 192 l41 43 28 -33 c15 -19 35 -62 45 -97z m-768 76 c23
-10 42 -23 42 -27 0 -5 -9 -26 -20 -48 -24 -47 -25 -85 -5 -151 22 -74 18 -75
-25 -7 -48 75 -75 141 -83 206 -7 46 -6 47 21 47 15 0 46 -9 70 -20z m1110
-97 c-7 -87 -38 -168 -93 -240 -48 -64 -114 -121 -101 -87 4 10 12 43 17 71
16 87 -20 175 -62 152 -55 -29 16 84 76 121 41 25 108 48 144 49 23 1 24 0 19
-66z m185 -10 c-27 -20 -33 -15 -21 19 10 29 12 30 25 12 12 -16 11 -20 -4
-31z m-1047 -99 c36 -29 42 -39 53 -100 12 -67 39 -133 70 -168 16 -18 15 -18
-19 -1 -65 34 -137 119 -190 228 -27 56 -50 108 -50 115 0 17 74 -24 136 -74z
m-103 -106 c40 -68 85 -120 134 -155 53 -38 50 -42 -9 -12 -92 47 -192 196
-204 304 l-5 50 29 -72 c16 -40 41 -91 55 -115z m1271 124 c5 -9 -86 -161
-130 -216 -32 -40 -97 -90 -132 -101 -22 -6 -23 -4 -20 31 2 32 0 39 -17 42
-71 11 -71 6 -6 90 79 104 105 130 143 147 35 15 154 20 162 7z m-754 -42 c0
-35 -11 -52 -26 -39 -17 14 -18 41 -2 57 14 14 28 6 28 -18z m844 17 c18 -13
16 -18 -24 -95 -49 -96 -123 -169 -219 -220 -34 -19 -64 -32 -66 -30 -3 2 18
21 45 41 66 50 123 123 176 229 24 48 50 88 57 88 7 0 21 -6 31 -13z m-12409
-22 c101 -25 194 -35 335 -35 128 0 334 24 419 49 28 9 36 8 47 -7 32 -41 56
-130 65 -241 6 -82 15 -126 29 -154 l21 -39 -28 6 c-15 3 -59 11 -98 17 -38 6
-122 24 -185 39 -63 16 -138 32 -166 36 -54 7 -190 -12 -347 -48 -109 -25
-106 -27 -177 119 -39 82 -50 115 -50 154 0 62 33 133 58 125 9 -3 44 -12 77
-21z m11433 -67 c39 -27 72 -55 72 -63 0 -8 -3 -15 -8 -15 -4 0 -31 -21 -60
-46 l-53 -47 -29 28 c-59 57 -84 159 -49 201 13 16 23 12 127 -58z m-5736 -5
c43 -12 64 -27 111 -79 33 -34 83 -80 113 -100 30 -21 53 -39 51 -40 -1 -1
-34 4 -72 12 -50 10 -126 42 -260 109 -104 52 -203 98 -220 102 -29 8 -29 8
15 14 64 10 201 1 262 -18z m6071 -20 c-10 -67 -43 -142 -74 -167 -30 -26
-114 -56 -154 -56 -28 0 -61 25 -68 52 -9 33 51 83 179 150 60 31 112 57 116
57 4 1 4 -16 1 -36z m-4390 -12 c-45 -22 -122 -66 -170 -99 -104 -70 -226
-133 -303 -157 -33 -10 -105 -18 -180 -21 l-125 -5 90 39 c134 58 231 108 323
168 156 102 185 111 341 113 l105 1 -81 -39z m-7685 -120 c34 -71 75 -145 91
-164 l31 -34 -62 -7 c-121 -12 -132 -10 -155 32 -24 44 -37 133 -28 196 7 45
38 106 53 106 5 0 37 -58 70 -129z m11219 76 c39 -21 192 -132 192 -138 1 -4
-16 -10 -36 -14 -21 -4 -50 -13 -65 -21 -25 -13 -28 -20 -28 -68 l0 -54 -57
15 c-75 19 -144 55 -195 101 -52 47 -111 133 -99 145 39 39 238 62 288 34z
m-9786 -81 c21 -46 39 -90 39 -98 0 -8 14 -34 30 -56 17 -23 30 -44 30 -47 0
-3 -27 -5 -59 -5 -52 0 -62 3 -80 26 -25 32 -36 81 -34 154 1 52 16 110 28
110 4 0 24 -38 46 -84z m10820 -112 c-37 -104 -107 -153 -219 -154 -67 0 -118
16 -142 45 -13 15 -12 19 10 38 49 39 224 117 295 130 39 8 71 10 73 6 2 -4
-6 -33 -17 -65z m-508 -37 c30 -8 62 -19 71 -24 43 -24 -112 -103 -202 -103
-63 0 -108 14 -166 50 -27 17 -51 29 -54 26 -3 -3 15 -26 39 -50 71 -70 146
-86 289 -60 15 2 7 -4 -19 -17 -60 -29 -152 -29 -207 -1 -67 34 -151 149 -127
173 4 4 51 14 103 21 99 15 175 10 273 -15z m-5363 -21 c262 -54 320 -68 320
-78 0 -13 -79 -46 -156 -65 -86 -21 -169 -9 -317 47 -67 26 -140 45 -194 52
l-86 11 39 20 c109 56 173 59 394 13z m6043 -3 c34 -17 105 -89 130 -132 l18
-30 -39 -26 c-71 -47 -140 -67 -242 -72 -79 -3 -102 -1 -135 15 l-40 19 96 0
c108 0 177 18 224 59 29 25 29 25 5 19 -73 -17 -191 -27 -244 -21 l-59 8 31
15 c45 22 108 79 143 129 33 48 47 50 112 17z m-4905 1 c35 -4 60 -10 55 -14
-14 -13 -266 -108 -329 -124 -118 -30 -238 -14 -354 49 l-45 24 125 1 c155 0
230 12 323 50 55 23 83 29 117 25 25 -2 73 -7 108 -11z m3835 -149 c48 -42
109 -72 187 -92 l35 -9 -58 -29 c-49 -23 -75 -29 -156 -33 -96 -4 -192 8 -217
29 -10 8 -7 23 13 67 28 63 48 90 78 103 41 16 67 9 118 -36z m620 -36 c59
-14 82 -50 74 -116 -9 -83 -103 -183 -172 -183 -61 0 -196 106 -211 165 -12
49 -1 68 61 103 33 18 73 46 89 62 l29 29 41 -24 c23 -13 63 -29 89 -36z
m-8975 -215 c60 -34 192 -147 192 -165 0 -10 -148 52 -200 84 -39 24 -160 136
-160 148 0 12 92 -25 168 -67z m-2518 -9 c91 -14 202 -25 247 -25 45 0 89 -3
97 -6 9 -4 53 -54 99 -113 45 -58 114 -142 153 -186 38 -44 95 -111 126 -150
30 -38 64 -77 74 -86 11 -8 105 -56 209 -107 166 -80 202 -94 285 -108 123
-21 189 -53 271 -135 81 -80 119 -154 157 -309 16 -63 36 -128 45 -145 19 -37
66 -81 137 -130 88 -60 140 -115 170 -180 29 -64 64 -174 57 -181 -2 -3 -24
26 -48 63 -63 96 -130 160 -246 230 -166 103 -231 189 -348 471 -64 152 -98
177 -312 227 -80 19 -128 37 -170 62 -140 87 -216 113 -229 79 -7 -17 43 -280
62 -324 7 -18 54 -90 104 -161 49 -70 90 -132 90 -137 0 -4 -24 14 -52 42 -29
28 -83 76 -120 107 -100 86 -108 103 -194 397 -65 220 -84 258 -205 396 -58
65 -130 152 -162 191 -51 65 -63 74 -110 87 -334 91 -577 171 -591 195 -3 4
50 -3 117 -16 67 -13 196 -35 287 -48z m1370 -155 c212 -13 486 -44 580 -66
71 -16 77 -20 164 -103 50 -47 127 -115 171 -151 81 -65 337 -301 332 -306 -1
-2 -38 15 -81 37 -43 21 -85 39 -93 39 -21 0 -13 -43 37 -204 22 -71 39 -133
38 -138 -2 -5 -50 71 -108 168 -137 233 -171 274 -263 318 -82 40 -178 60
-387 81 -80 8 -170 22 -200 32 l-55 17 110 7 c63 3 146 16 194 28 46 13 94 21
107 18 40 -7 27 9 -23 31 -73 31 -163 55 -463 127 -151 36 -279 67 -285 69
-18 8 56 6 225 -4z m9400 -4 c-14 -7 -164 -73 -333 -146 -184 -79 -311 -140
-314 -149 -35 -101 -92 -231 -129 -296 -26 -44 -73 -129 -105 -190 -32 -60
-58 -103 -58 -95 0 56 34 186 78 297 28 72 60 162 71 200 46 165 82 210 205
249 87 28 557 142 590 143 17 0 17 -2 -5 -13z m-7612 -727 c198 -9 242 -17
315 -57 64 -34 194 -172 235 -249 17 -33 32 -64 32 -68 0 -3 -26 16 -57 43
-129 110 -224 158 -468 237 -93 31 -195 69 -225 86 -30 16 -46 27 -35 24 11
-4 102 -11 203 -16z"/>
<path d="M2830 10785 c0 -3 50 -56 111 -118 61 -61 163 -173 227 -247 145
-168 170 -192 257 -248 38 -25 98 -67 133 -93 34 -27 62 -47 62 -44 0 3 -11
27 -24 53 -13 26 -45 103 -70 172 -44 114 -53 130 -109 188 -118 121 -239 198
-434 276 -62 25 -121 50 -133 56 -11 6 -20 8 -20 5z"/>
<path d="M10900 10414 c-52 -8 -99 -19 -103 -23 -5 -5 27 -11 70 -15 43 -3
143 -16 223 -28 104 -16 193 -22 315 -22 159 -1 335 17 335 33 0 4 -102 20
-227 36 -273 34 -479 40 -613 19z"/>
<path d="M12305 10404 c-55 -13 -133 -26 -172 -30 -40 -4 -73 -10 -73 -14 0
-10 101 -30 190 -36 53 -5 110 0 195 14 158 27 305 62 305 72 0 12 -85 20
-219 19 -96 0 -150 -6 -226 -25z"/>
<path d="M13006 10401 c21 -19 123 -45 179 -44 60 0 181 28 191 44 3 5 -81 9
-187 9 -111 0 -189 -4 -183 -9z"/>
<path d="M12785 10293 c-11 -2 -63 -19 -115 -36 l-95 -32 140 -6 c77 -4 185
-14 239 -23 110 -19 172 -15 276 16 94 29 96 38 8 38 -41 0 -135 11 -208 25
-124 23 -197 29 -245 18z"/>
<path d="M11318 10234 c-43 -9 -78 -19 -78 -23 0 -4 48 -8 108 -10 135 -3 201
-12 387 -58 139 -34 161 -37 305 -37 150 -1 157 0 213 27 60 30 77 53 30 40
-74 -21 -247 -3 -473 47 -128 29 -381 36 -492 14z"/>
<path d="M12204 9858 c197 -242 276 -469 368 -1048 12 -80 24 -135 26 -123 5
36 -27 470 -44 581 -47 316 -150 523 -296 596 -72 36 -87 34 -54 -6z"/>
<path d="M11706 9493 c25 -79 101 -424 138 -628 28 -153 112 -696 117 -756 1
-8 5 0 9 16 12 45 11 312 0 470 -22 286 -75 554 -144 725 -26 62 -109 204
-126 215 -5 3 -2 -16 6 -42z"/>
<path d="M17922 9588 c-126 -160 -279 -436 -336 -610 -22 -65 -26 -95 -26
-196 0 -135 -14 -289 -40 -440 -13 -78 -14 -100 -4 -90 23 24 215 342 255 423
30 60 44 106 55 175 51 319 89 533 118 658 18 78 32 142 30 142 -1 0 -25 -28
-52 -62z"/>
<path d="M16634 9570 c20 -213 57 -559 66 -614 13 -82 250 -649 265 -634 2 2
-1 39 -7 83 -6 48 -8 178 -5 325 l6 245 -30 90 c-50 151 -207 455 -280 545
l-21 25 6 -65z"/>
<path d="M17987 9353 c-2 -16 -23 -129 -47 -251 -23 -123 -40 -225 -38 -228 2
-2 24 16 47 40 l43 44 6 211 c5 195 1 252 -11 184z"/>
<path d="M15770 8983 c0 -3 40 -47 88 -97 120 -124 154 -169 309 -405 128
-195 198 -279 285 -345 46 -34 281 -176 286 -172 1 2 -39 66 -91 143 -96 143
-181 299 -238 438 -27 66 -44 91 -101 147 -111 109 -253 196 -429 264 -89 34
-109 39 -109 27z"/>
<path d="M18740 8660 c-160 -20 -381 -97 -522 -181 -112 -67 -128 -84 -226
-234 -88 -135 -218 -308 -286 -382 -45 -51 -35 -54 56 -19 112 42 252 113 318
162 35 26 138 120 229 208 209 204 293 271 455 369 72 42 123 77 114 77 -8 0
-28 2 -44 4 -16 2 -58 0 -94 -4z"/>
<path d="M13850 7753 c0 -5 34 -25 75 -46 109 -54 111 -78 7 -118 -90 -33
-179 -48 -349 -59 -159 -9 -309 -32 -326 -49 -28 -28 560 -25 681 4 122 29
192 81 192 142 0 68 -76 112 -222 129 -33 3 -58 2 -58 -3z"/>
<path d="M12552 7625 c-84 -18 -156 -36 -159 -39 -4 -3 9 -6 28 -7 19 0 131
-3 249 -6 430 -10 460 -10 525 11 l60 20 -105 12 c-58 6 -145 19 -194 28 -131
24 -228 19 -404 -19z"/>
<path d="M11825 7608 c-31 -17 -45 -39 -45 -74 0 -44 36 -84 103 -117 123 -60
139 -62 537 -62 291 -1 385 -4 465 -17 55 -9 120 -20 145 -23 l45 -6 -55 29
c-78 42 -215 89 -312 107 -66 12 -145 15 -378 13 -322 -3 -368 3 -452 58 -41
26 -47 47 -22 82 17 25 4 30 -31 10z"/>
<path d="M17975 7544 c-176 -64 -216 -75 -301 -86 -74 -9 -108 -9 -182 3 -50
8 -90 14 -89 13 1 -1 27 -22 58 -47 73 -59 104 -74 196 -98 100 -25 262 -25
403 1 58 11 152 25 210 31 96 11 114 10 213 -10 59 -12 131 -30 159 -41 l52
-19 -45 45 c-107 110 -287 201 -444 224 -107 15 -154 12 -230 -16z"/>
<path d="M14377 7524 c-55 -75 -192 -133 -404 -170 -82 -15 -152 -30 -157 -35
-15 -13 104 -22 218 -16 193 11 336 53 399 119 44 46 46 66 9 101 -34 33 -42
33 -65 1z"/>
<path d="M11460 7348 c0 -24 52 -95 90 -124 155 -115 455 -161 818 -123 75 8
190 10 322 6 230 -7 230 -6 41 53 -141 44 -233 52 -456 41 -387 -20 -633 23
-782 137 -25 18 -33 21 -33 10z"/>
<path d="M13328 7260 c-116 -11 -168 -20 -168 -30 0 -17 109 -35 210 -35 96 1
305 34 335 54 28 18 -226 25 -377 11z"/>
<path d="M13685 7058 c-66 -17 -123 -21 -330 -25 -137 -2 -308 0 -380 5 -71 5
-132 8 -134 6 -6 -5 112 -58 179 -81 45 -15 85 -18 220 -18 193 1 282 16 435
76 160 63 164 76 10 37z"/>
<path d="M10425 6990 c-504 -46 -698 -79 -845 -146 -128 -58 -134 -117 -18
-175 122 -61 105 -99 -64 -139 -103 -24 -237 -41 -628 -80 -359 -36 -479 -53
-603 -84 -197 -50 -258 -107 -212 -196 9 -18 55 -55 118 -96 169 -110 174
-114 232 -174 70 -75 94 -127 95 -206 0 -160 -152 -255 -535 -332 -82 -17
-278 -54 -435 -82 -460 -84 -658 -141 -732 -211 -96 -91 -5 -160 322 -243 358
-91 248 -84 1535 -89 839 -4 1223 -9 1455 -21 397 -19 642 -20 940 -1 373 23
595 50 797 96 130 30 374 106 410 129 20 12 -64 11 -694 -11 -279 -10 -399
-10 -575 0 -337 18 -341 25 -28 39 679 31 1128 78 1405 148 307 78 434 136
619 284 74 59 174 130 223 158 49 28 97 60 106 70 26 28 44 81 56 162 17 109
38 181 92 308 50 117 73 205 67 258 l-3 31 -75 -18 c-263 -64 -531 -86 -843
-69 -109 6 -208 15 -220 19 -12 5 44 10 139 14 285 11 598 62 720 117 61 27
144 93 144 113 0 7 -105 7 -342 1 -542 -14 -974 -11 -1173 10 -323 33 -597 90
-738 153 -31 14 -56 27 -54 29 2 2 55 -9 118 -25 63 -16 159 -35 214 -42 123
-16 483 -16 625 0 160 18 359 56 348 66 -8 8 -140 24 -418 50 -384 36 -507 55
-612 95 -66 25 -98 53 -98 86 0 30 -3 29 -118 -18 -46 -19 -81 -41 -96 -61
-23 -28 -26 -30 -32 -13 -5 12 -1 31 9 48 20 35 20 35 -123 -2 -175 -46 -300
-115 -300 -166 0 -24 71 -85 134 -116 49 -24 54 -28 26 -23 -106 22 -196 72
-223 127 -16 33 -16 40 -4 70 19 45 87 102 169 141 66 32 84 48 51 46 -10 -1
-157 -14 -328 -29z m-211 -231 c-23 -65 7 -111 112 -175 37 -23 -30 -4 -86 24
-94 48 -110 95 -54 161 35 42 44 39 28 -10z m1101 -320 c179 -11 401 -42 375
-52 -13 -5 -96 -14 -290 -33 -116 -11 -429 33 -594 83 l-58 18 198 -2 c110 -2
276 -8 369 -14z m-1475 -163 c69 -8 163 -20 210 -27 l85 -13 -50 -7 c-90 -13
-329 -29 -436 -29 -110 1 -251 12 -384 32 -97 14 -81 20 91 37 66 6 133 13
149 15 75 8 221 5 335 -8z m2430 -596 c199 -15 333 -32 319 -40 -20 -11 -204
-29 -391 -40 -103 -6 -226 -6 -333 0 -169 10 -378 30 -372 36 3 4 368 42 447
47 116 7 210 6 330 -3z m-3320 -410 c188 -13 423 -41 413 -51 -15 -13 -316
-29 -543 -29 -224 0 -523 16 -548 30 -19 10 334 51 503 58 17 1 95 -3 175 -8z"/>
<path d="M12618 6779 c67 -32 177 -52 292 -53 111 -1 220 10 220 23 0 11 -286
42 -430 47 l-125 4 43 -21z"/>
<path d="M11917 4037 c-74 -193 -370 -942 -404 -1022 -61 -145 -88 -185 -140
-210 -32 -14 -43 -25 -43 -42 l0 -23 190 0 190 0 0 24 c0 19 -7 25 -33 30 -48
9 -82 48 -80 94 0 20 23 93 50 162 l48 125 213 3 213 2 23 -52 c54 -121 97
-252 92 -274 -8 -31 -33 -54 -67 -61 -22 -4 -29 -11 -29 -29 l0 -24 230 0
c223 0 230 1 230 20 0 14 -15 27 -49 44 -33 17 -58 40 -79 73 -16 26 -125 284
-240 573 -116 289 -218 542 -226 563 -14 32 -21 37 -50 37 -19 0 -36 -6 -39
-13z m78 -527 c48 -118 89 -221 92 -227 4 -10 -35 -13 -177 -13 -169 0 -182 1
-176 18 37 98 170 441 172 439 1 -1 41 -99 89 -217z"/>
<path d="M15345 4041 c-27 -6 -33 -15 -71 -116 -119 -310 -374 -947 -404
-1005 -38 -76 -68 -109 -111 -121 -32 -10 -39 -17 -37 -33 3 -20 9 -21 196
-24 l192 -2 0 24 c0 19 -7 25 -33 30 -45 8 -81 48 -81 89 0 17 22 89 48 159
l48 127 42 6 c22 3 119 5 215 3 l174 -3 58 -144 c33 -79 59 -150 59 -157 0
-42 -25 -66 -92 -87 -11 -4 -15 -13 -11 -26 5 -20 11 -21 234 -21 222 0 229 1
229 20 0 14 -15 27 -49 44 -61 31 -94 82 -157 241 -146 372 -397 982 -407 991
-7 6 -25 8 -42 5z m-25 -332 c0 -6 146 -382 168 -431 2 -5 -78 -8 -178 -8
-169 0 -182 1 -176 18 140 368 186 473 186 421z"/>
<path d="M17847 4043 c-2 -5 -105 -260 -228 -567 -122 -308 -236 -580 -253
-605 -20 -29 -46 -53 -73 -66 -31 -15 -42 -26 -43 -42 l0 -23 190 0 190 0 0
24 c0 18 -7 25 -30 30 -17 3 -42 17 -56 32 -23 22 -26 32 -22 72 3 26 25 99
50 162 l45 115 215 3 215 2 57 -142 c31 -79 56 -154 56 -168 0 -38 -26 -68
-65 -76 -28 -5 -35 -11 -35 -30 l0 -24 230 0 230 0 0 24 c0 19 -8 27 -35 36
-39 13 -76 53 -110 119 -13 26 -118 283 -235 571 -116 287 -215 531 -221 541
-10 19 -63 27 -72 12z m67 -511 c43 -108 85 -212 92 -229 l14 -33 -186 0
c-145 0 -185 3 -181 13 42 102 167 428 167 436 0 36 24 -12 94 -187z"/>
<path d="M3710 4028 c0 -26 -448 -1130 -475 -1169 -16 -26 -42 -47 -66 -58
-29 -12 -39 -22 -39 -38 l0 -23 191 0 c189 0 190 0 187 22 -2 15 -15 25 -43
35 -49 16 -75 46 -75 84 0 22 44 152 95 282 7 15 27 17 225 17 l218 0 50 -122
c56 -136 67 -173 63 -203 -4 -31 -30 -54 -67 -61 -27 -5 -34 -11 -34 -30 l0
-24 235 0 c230 0 235 0 235 20 0 15 -13 26 -44 40 -24 10 -56 34 -71 54 -25
33 -183 405 -403 949 l-96 237 -43 0 c-28 0 -43 -4 -43 -12z m30 -370 c13 -35
51 -132 86 -216 35 -84 64 -157 64 -162 0 -6 -71 -10 -180 -10 -99 0 -180 4
-180 8 0 4 30 84 66 177 36 94 75 194 86 223 11 29 23 50 27 47 5 -2 18 -33
31 -67z"/>
<path d="M6377 4029 c-341 -45 -557 -301 -557 -660 0 -253 110 -452 320 -577
19 -11 71 -33 115 -48 70 -24 95 -28 205 -28 138 0 234 20 340 72 l55 27 17
90 c9 50 20 120 24 158 l7 67 -27 0 c-23 0 -31 -10 -65 -84 -45 -98 -105 -167
-176 -204 -45 -24 -61 -27 -155 -27 -97 0 -110 2 -165 30 -122 61 -216 186
-255 341 -40 156 -21 393 41 516 56 112 146 197 237 225 66 20 200 19 263 -2
90 -30 170 -133 203 -262 10 -41 16 -48 37 -48 l24 0 -3 140 c-4 198 -1 187
-80 218 -131 52 -281 72 -405 56z"/>
<path d="M8895 4026 c-289 -57 -470 -245 -516 -536 -14 -88 -6 -229 16 -315
77 -291 349 -483 656 -462 271 20 478 177 566 429 37 108 44 300 14 418 -31
126 -74 203 -161 291 -83 83 -173 137 -276 163 -89 23 -217 28 -299 12z m197
-87 c74 -16 119 -41 177 -99 101 -101 154 -266 154 -475 0 -210 -50 -362 -149
-455 -159 -150 -383 -144 -533 15 -96 102 -141 228 -148 421 -7 157 11 264 62
369 36 76 111 162 166 191 76 40 179 52 271 33z"/>
<path d="M10775 4030 c-345 -41 -576 -308 -575 -664 1 -201 87 -391 231 -512
52 -44 155 -96 235 -120 80 -25 273 -25 362 -1 67 18 192 65 205 77 9 8 47
239 47 288 0 27 -3 32 -25 32 -21 0 -30 -12 -65 -87 -46 -100 -100 -162 -175
-201 -44 -24 -61 -27 -145 -27 -88 0 -101 3 -165 34 -127 63 -224 192 -261
349 -21 87 -21 273 0 370 21 101 70 196 138 264 65 68 118 94 215 108 126 18
227 -12 296 -89 43 -48 63 -84 92 -171 17 -50 26 -65 41 -65 17 0 19 9 22 95
1 52 -1 128 -5 169 l-8 74 -65 24 c-121 46 -280 67 -395 53z"/>
<path d="M12994 4026 c-89 -17 -184 -67 -230 -120 -86 -101 -86 -298 1 -411
34 -45 124 -109 260 -183 137 -75 186 -117 220 -187 64 -130 4 -280 -127 -316
-50 -13 -142 -6 -192 15 -80 33 -148 123 -186 244 -9 29 -20 53 -23 53 -4 -1
-16 -1 -27 -1 -19 0 -20 -7 -20 -109 0 -59 3 -129 6 -155 7 -45 9 -48 63 -75
213 -108 489 -86 620 49 22 23 53 67 68 98 25 50 28 68 28 152 0 88 -3 101
-33 162 -43 89 -97 134 -277 238 -241 138 -292 199 -265 318 20 92 75 138 177
148 66 7 133 -8 177 -39 37 -26 82 -98 103 -164 14 -44 21 -53 40 -53 23 0 23
1 23 135 0 157 4 150 -116 183 -99 28 -204 34 -290 18z"/>
<path d="M14075 4014 c-167 -40 -337 -176 -408 -324 -50 -104 -69 -194 -68
-320 2 -437 346 -722 780 -646 52 9 131 31 175 49 l81 32 22 120 c12 66 23
138 25 160 3 36 1 40 -22 43 -23 3 -29 -6 -67 -87 -80 -170 -179 -236 -343
-229 -72 2 -96 8 -152 36 -178 87 -278 280 -278 536 0 119 21 231 60 313 38
82 134 184 200 212 101 43 255 44 338 2 73 -37 142 -137 171 -248 10 -36 16
-43 36 -43 24 0 25 3 25 58 0 33 -3 107 -6 165 l-7 106 -71 26 c-39 14 -101
33 -139 41 -86 18 -273 17 -352 -2z"/>
<path d="M2163 4013 l-203 -3 0 -23 c0 -19 8 -25 45 -35 82 -22 80 -9 83 -542
2 -256 0 -484 -3 -507 -8 -55 -46 -100 -91 -109 -28 -5 -35 -10 -32 -28 3 -21
7 -21 236 -24 l232 -2 0 23 c0 18 -9 26 -42 37 -81 29 -98 86 -98 335 0 188 2
192 76 181 65 -8 138 -51 195 -114 26 -29 92 -123 144 -208 117 -187 164 -251
268 -360 169 -179 378 -264 617 -251 115 7 186 24 270 68 74 38 94 55 87 73
-5 14 -12 13 -52 -4 -124 -53 -303 -61 -430 -19 -191 64 -324 187 -513 474
-116 176 -170 244 -247 306 -65 52 -77 69 -51 69 7 0 45 16 84 35 132 66 197
169 196 311 0 209 -178 328 -479 322 -49 -2 -181 -4 -292 -5z m403 -98 c97
-29 155 -114 156 -230 1 -190 -110 -285 -332 -285 -102 0 -100 -4 -99 213 1
209 9 295 30 308 23 14 190 11 245 -6z"/>
<path d="M4420 3986 c0 -19 8 -26 45 -36 57 -16 90 -47 104 -96 17 -62 14
-883 -3 -959 -16 -64 -40 -92 -88 -102 -22 -4 -28 -11 -26 -27 3 -20 8 -21
191 -24 162 -2 187 0 187 13 0 8 1 18 3 22 1 4 -14 11 -33 16 -44 11 -68 32
-89 77 -13 30 -16 89 -19 385 -2 193 -2 379 0 414 l3 64 84 -109 c47 -60 128
-161 181 -224 53 -63 199 -245 324 -403 157 -197 233 -286 243 -283 8 4 21 6
29 6 12 0 14 68 14 448 0 246 5 505 10 576 11 152 24 183 88 206 33 11 42 19
42 37 l0 23 -190 0 -190 0 0 -25 c0 -16 6 -25 16 -25 36 0 87 -34 103 -69 23
-51 31 -815 8 -791 -36 37 -322 388 -502 615 -109 137 -209 260 -221 272 -22
22 -31 23 -169 23 l-145 0 0 -24z"/>
<path d="M7020 3985 c0 -17 6 -25 18 -25 35 0 80 -38 91 -77 15 -52 15 -954 0
-1006 -13 -47 -40 -76 -79 -84 -23 -4 -30 -11 -30 -29 l0 -24 225 0 225 0 0
24 c0 19 -7 25 -33 30 -42 8 -72 39 -86 91 -6 23 -11 130 -11 251 l0 211 283
5 c155 3 285 4 290 1 10 -6 8 -420 -2 -466 -12 -50 -45 -85 -88 -93 -28 -5
-33 -11 -31 -28 3 -21 7 -21 231 -24 l228 -2 -3 22 c-2 14 -14 25 -33 31 -43
14 -73 45 -85 86 -12 44 -13 917 -1 979 10 53 43 90 88 98 28 5 33 11 31 28
-3 21 -7 21 -231 24 l-228 2 3 -22 c2 -15 15 -25 46 -36 71 -23 76 -42 80
-289 l4 -213 -292 0 -293 0 5 209 c5 242 12 265 86 291 33 11 42 19 42 37 l0
23 -225 0 -225 0 0 -25z"/>
<path d="M16050 3986 c0 -17 6 -26 15 -26 30 0 75 -31 92 -63 16 -29 18 -74
21 -485 2 -317 0 -469 -8 -509 -14 -64 -44 -100 -90 -110 -24 -4 -30 -10 -28
-27 3 -21 7 -21 258 -24 362 -5 402 -3 488 18 127 33 229 89 305 169 114 121
166 262 167 448 0 310 -149 520 -430 604 -70 21 -97 23 -432 27 l-358 4 0 -26z
m657 -82 c171 -44 285 -166 329 -350 22 -92 22 -277 1 -367 -32 -130 -96 -227
-188 -287 -80 -52 -163 -73 -286 -74 -88 -1 -105 2 -130 20 -53 39 -54 57 -51
569 2 258 7 478 11 487 5 9 21 19 35 21 45 8 221 -4 279 -19z"/>
</g>
</svg>
