<?xml version="1.0" standalone="no"?>
<!DOCTYPE svg PUBLIC "-//W3C//DTD SVG 20010904//EN"
 "http://www.w3.org/TR/2001/REC-SVG-20010904/DTD/svg10.dtd">
<svg version="1.0" xmlns="http://www.w3.org/2000/svg"
 width="2752.000000pt" height="1536.000000pt" viewBox="0 0 2752.000000 1536.000000"
 preserveAspectRatio="xMidYMid meet">

<g transform="translate(0.000000,1536.000000) scale(0.100000,-0.100000)"
fill="#000000" stroke="none">
<path d="M7075 13809 c-257 -11 -617 -61 -902 -125 -121 -27 -338 -92 -331
-100 3 -2 47 0 99 6 116 12 647 13 633 1 -5 -4 -119 -21 -254 -36 -135 -15
-308 -38 -385 -51 -904 -156 -1878 -659 -2329 -1203 -102 -123 -167 -223 -297
-456 -304 -546 -571 -939 -807 -1190 -42 -44 -96 -112 -122 -151 -75 -115
-186 -385 -265 -648 -20 -65 -38 -116 -40 -114 -6 6 34 228 66 363 72 299 143
435 344 656 154 170 207 236 309 389 118 177 209 329 348 584 305 559 443 733
813 1026 327 258 810 514 1446 764 107 42 208 83 224 91 29 13 30 14 5 14 -78
3 -480 -101 -715 -185 -624 -221 -1150 -566 -1516 -994 -118 -138 -150 -165
-287 -235 l-93 -48 -104 -136 c-57 -75 -169 -208 -250 -296 -220 -238 -318
-362 -506 -637 -237 -347 -346 -530 -505 -848 -165 -331 -241 -526 -344 -890
-131 -463 -182 -974 -161 -1593 24 -670 64 -1017 177 -1524 124 -559 400
-1192 749 -1718 237 -358 456 -628 743 -919 375 -378 709 -641 1159 -912 444
-268 759 -420 1193 -576 768 -276 1701 -400 2576 -343 1061 70 1888 316 2799
834 489 277 887 583 1310 1006 446 444 779 909 1041 1450 115 237 234 515 234
546 0 5 -48 6 -107 3 -83 -5 -125 -2 -178 11 l-70 16 -20 -27 c-11 -15 -56
-75 -100 -133 -44 -58 -94 -128 -111 -154 l-32 -48 -25 43 c-14 24 -66 98
-115 166 -50 67 -94 132 -97 143 -5 14 -12 18 -23 14 -67 -26 -155 -37 -262
-32 -124 5 -174 18 -191 49 -6 11 -9 21 -7 23 2 1 44 -4 93 -12 98 -15 272
-12 337 7 21 6 57 28 81 48 23 20 54 45 67 54 24 17 23 17 -56 17 -44 1 -125
10 -180 22 -114 24 -203 21 -324 -10 -41 -11 -75 -19 -77 -17 -7 7 112 69 152
80 l46 11 -25 24 c-19 18 -23 28 -15 37 9 11 29 4 100 -32 50 -24 131 -59 182
-76 85 -28 100 -30 199 -26 l108 4 -58 -31 c-90 -50 -120 -110 -87 -175 12
-23 146 -202 175 -234 5 -4 24 16 42 45 19 30 60 83 90 119 65 76 78 99 78
136 0 26 -38 71 -105 122 l-30 23 30 -6 c17 -3 55 -10 85 -15 91 -16 295 17
384 62 23 12 95 54 162 94 195 118 272 151 474 202 l35 9 -60 13 c-40 8 -105
11 -200 7 -177 -6 -282 -32 -462 -116 -72 -33 -196 -85 -275 -115 -192 -72
-191 -72 -129 -37 153 87 293 225 407 401 23 36 85 147 138 248 53 101 110
205 127 230 18 26 92 107 165 179 74 73 130 133 125 133 -5 0 -48 -16 -96 -36
-163 -69 -349 -209 -462 -349 -35 -44 -133 -183 -218 -310 -84 -126 -167 -246
-184 -265 l-31 -35 35 70 c116 234 123 573 21 1002 -27 112 -93 322 -106 336
-4 4 -21 -34 -38 -85 -105 -317 -167 -733 -142 -946 17 -138 52 -266 98 -358
39 -77 92 -201 92 -213 0 -3 -38 62 -83 144 -46 83 -103 182 -127 220 -49 79
-133 252 -209 430 -60 139 -96 197 -199 318 -67 78 -218 214 -228 204 -2 -2
21 -62 52 -133 30 -71 89 -228 131 -349 142 -417 225 -543 511 -782 61 -51
112 -96 112 -99 0 -4 -15 5 -32 18 -141 106 -279 188 -613 365 -65 34 -126 70
-134 78 -13 13 -13 16 2 27 16 12 16 15 -6 48 -13 19 -45 70 -71 112 -100 164
-220 302 -340 390 l-80 58 36 0 c107 0 356 -91 498 -183 30 -20 56 -32 58 -28
7 21 -141 386 -224 553 -19 37 -34 70 -34 73 0 8 78 -46 190 -131 89 -68 200
-175 263 -254 l28 -35 -5 40 c-5 40 -30 347 -40 483 -3 39 -1 72 4 72 14 0
205 -314 267 -437 31 -64 58 -112 60 -107 1 5 19 83 39 174 28 128 143 510
159 528 2 2 37 -99 78 -225 65 -198 107 -357 131 -496 l7 -37 57 112 c58 115
175 289 244 364 l38 41 0 101 c0 291 -36 724 -85 1017 -44 264 -162 781 -240
1051 -14 47 -24 88 -22 90 7 7 88 -165 141 -303 165 -426 259 -854 296 -1348
13 -183 13 -611 -1 -885 -6 -120 -9 -225 -7 -234 2 -12 17 -6 69 27 37 23 74
47 83 52 40 24 71 485 63 920 -11 543 -56 898 -173 1345 -35 133 -229 727
-339 1034 -228 640 -555 1154 -900 1411 -174 130 -211 169 -320 334 -57 86
-132 190 -167 231 -71 83 -251 254 -343 326 -180 140 -469 322 -725 457 -135
71 -414 191 -431 185 -6 -2 39 -33 100 -68 531 -309 949 -621 1188 -886 93
-103 225 -280 285 -380 78 -133 100 -155 238 -254 235 -168 388 -329 563 -595
155 -235 281 -514 390 -865 85 -274 87 -291 9 -110 -232 539 -462 938 -693
1201 -89 101 -195 192 -324 279 -120 80 -146 109 -221 237 -217 371 -454 614
-888 910 -569 390 -1288 721 -1891 872 -414 103 -807 162 -1220 181 -217 10
-211 10 -460 -1z m1030 -269 c375 -32 581 -82 1066 -262 94 -34 166 -64 161
-66 -5 -1 -123 29 -262 67 -306 85 -730 157 -1388 236 -113 14 -207 27 -210
30 -10 9 511 5 633 -5z m-316 -375 c115 -8 266 -38 450 -91 219 -63 264 -86
376 -194 51 -49 101 -90 109 -90 9 0 50 18 91 40 131 69 136 68 395 -42 311
-133 765 -373 994 -526 l98 -66 -87 -13 c-134 -19 -325 -74 -325 -93 0 -9 84
-18 302 -30 174 -10 319 -30 374 -50 69 -27 172 -112 341 -282 334 -337 353
-369 353 -598 0 -57 4 -102 10 -105 6 -4 44 7 85 24 148 62 251 27 317 -108
19 -39 23 -64 24 -166 l2 -120 74 -11 c93 -14 116 -29 166 -107 100 -156 244
-432 276 -528 77 -233 53 -350 -87 -420 -65 -33 -117 -75 -117 -95 0 -18 53
-39 168 -68 132 -34 212 -64 212 -80 0 -20 -23 -35 -143 -97 -128 -65 -132
-61 78 -84 75 -8 151 -21 169 -29 51 -21 102 -79 125 -141 41 -109 84 -403
106 -721 l6 -91 -158 -7 c-87 -3 -169 -9 -183 -12 -19 -5 -6 11 50 64 52 49
69 71 57 72 -23 0 -165 -65 -189 -87 -10 -9 -20 -14 -22 -12 -7 7 73 135 132
213 29 38 50 71 47 74 -8 8 -115 -61 -160 -105 -24 -23 -54 -61 -67 -85 l-22
-43 -7 75 c-4 41 -14 93 -22 115 -20 56 -107 228 -112 223 -3 -2 2 -36 10 -74
7 -38 19 -118 25 -179 5 -60 13 -128 16 -150 5 -40 5 -40 -46 37 -44 68 -137
158 -162 158 -5 0 5 -21 22 -46 31 -44 80 -144 95 -192 7 -22 5 -22 -36 8 -23
17 -66 37 -93 44 -128 35 -153 25 -57 -23 50 -26 151 -119 151 -140 0 -4 -35
-12 -78 -19 -43 -7 -134 -26 -202 -42 -83 -21 -127 -27 -134 -20 -11 11 27
194 51 242 7 15 13 43 13 62 0 19 5 57 12 85 12 55 2 120 -34 214 -26 68 -23
220 5 255 6 7 14 32 17 55 4 23 15 71 25 106 11 42 15 80 11 110 l-6 46 23
-27 c12 -16 26 -28 29 -28 15 0 40 102 45 185 5 73 2 97 -11 122 -9 18 -16 46
-16 63 0 19 -9 39 -23 53 -13 12 -33 39 -46 59 -28 47 -76 88 -103 88 -11 0
-33 9 -48 20 -16 11 -44 28 -62 36 -18 9 -49 24 -68 35 -19 10 -47 19 -61 19
-15 0 -46 9 -70 20 -45 20 -124 26 -147 11 -8 -5 -31 -2 -57 8 -37 13 -50 13
-94 2 -38 -9 -55 -10 -65 -2 -7 6 -16 8 -19 5 -7 -7 -69 -13 -204 -19 -45 -2
-87 -7 -94 -11 -7 -4 -51 -8 -98 -9 -47 -2 -99 -8 -114 -14 -43 -17 -101 -14
-120 7 -31 34 -56 105 -51 142 3 19 -1 56 -9 82 -10 30 -11 50 -5 56 7 7 6 28
-1 62 -6 29 -9 67 -5 84 3 18 -1 51 -9 75 -9 24 -13 57 -11 75 3 17 -2 51 -10
75 -9 24 -16 57 -16 73 0 16 -15 55 -34 87 -26 46 -34 71 -38 127 -4 52 -13
85 -33 122 -29 54 -61 89 -71 79 -9 -9 -23 -79 -24 -114 0 -32 -13 -43 -25
-23 -6 10 -59 7 -122 -6 -17 -3 -29 5 -51 34 -60 84 -83 106 -93 91 -12 -20
-10 -106 5 -154 11 -39 11 -41 -21 -71 -38 -36 -42 -65 -13 -94 l21 -21 -26
-33 c-14 -19 -32 -36 -39 -39 -21 -8 -46 -72 -46 -115 0 -50 34 -82 112 -107
78 -26 82 -32 64 -96 -23 -86 -29 -135 -16 -159 9 -16 8 -32 -4 -68 -9 -26
-16 -67 -15 -92 0 -80 -7 -204 -15 -241 -5 -24 -4 -39 3 -43 6 -4 11 -34 11
-66 0 -32 5 -71 10 -85 6 -15 17 -55 24 -89 23 -100 64 -208 90 -235 13 -14
31 -40 40 -58 24 -47 134 -171 159 -179 12 -4 25 -11 28 -17 4 -5 71 -42 150
-81 161 -80 168 -88 189 -206 6 -36 18 -88 26 -116 8 -28 14 -83 14 -123 0
-46 6 -83 16 -102 10 -20 18 -70 21 -140 l6 -109 -58 0 c-55 0 -57 1 -51 23 4
12 14 73 22 135 12 91 13 135 5 218 -6 58 -15 113 -21 124 -5 10 -10 32 -10
47 0 16 -10 57 -21 92 -21 60 -24 64 -73 86 -48 21 -124 63 -179 100 l-25 16
15 -58 c8 -32 21 -86 29 -121 8 -35 18 -72 24 -82 5 -10 10 -41 10 -67 0 -27
6 -58 14 -68 9 -12 12 -32 9 -53 -3 -18 -1 -43 6 -55 22 -45 37 -143 33 -224
-5 -95 0 -91 -102 -67 -36 8 -144 26 -240 40 -96 14 -180 31 -187 37 -7 8 -14
77 -19 195 -6 173 -8 185 -32 220 -50 74 -63 142 -45 232 l6 33 18 -24 18 -24
15 37 c9 21 16 61 16 89 0 50 -2 54 -57 109 -101 100 -220 123 -423 81 -153
-33 -179 -16 -199 126 -34 238 -45 277 -84 321 -31 34 -47 28 -47 -18 0 -51
-19 -53 -86 -5 -52 37 -62 34 -45 -17 18 -52 13 -71 -39 -131 -28 -32 -50 -67
-50 -78 0 -21 31 -43 75 -53 63 -15 75 -31 75 -99 0 -178 35 -306 109 -399 48
-60 52 -96 21 -198 -11 -37 -20 -94 -20 -133 0 -78 -26 -216 -44 -234 -36 -38
-488 -59 -529 -25 -36 31 -46 148 -35 437 7 196 19 245 77 323 62 82 97 205
105 367 6 117 -3 283 -19 375 -9 52 8 68 84 78 73 10 91 26 91 81 0 27 -8 42
-43 75 -24 23 -50 56 -57 74 -7 18 -22 39 -33 47 -20 14 -20 15 -2 73 27 92
17 95 -59 22 -77 -73 -89 -71 -84 18 4 63 -6 65 -56 15 -25 -25 -41 -55 -52
-92 -8 -31 -29 -87 -46 -126 -28 -65 -30 -78 -34 -220 -3 -159 -15 -259 -33
-294 -15 -28 -54 -36 -102 -22 -22 7 -43 10 -47 7 -5 -3 -37 0 -73 5 -84 14
-144 18 -261 19 -87 1 -102 -2 -155 -28 -32 -16 -71 -32 -88 -36 -36 -9 -107
-80 -136 -138 -17 -34 -21 -54 -17 -108 3 -36 11 -76 18 -90 l13 -23 11 28
c15 37 22 26 30 -50 4 -33 14 -87 23 -120 20 -80 13 -125 -32 -220 l-38 -80
14 -145 c7 -80 13 -170 14 -200 l0 -55 -73 -11 c-40 -6 -78 -16 -84 -22 -6 -6
-14 -34 -19 -62 -15 -93 -64 -181 -143 -258 -66 -63 -75 -78 -111 -168 -21
-54 -67 -155 -101 -224 -93 -186 -114 -256 -114 -384 0 -61 7 -133 16 -173 9
-37 17 -106 18 -153 1 -81 -1 -89 -40 -165 -39 -76 -107 -296 -134 -430 -20
-106 -60 -223 -84 -252 -23 -27 -106 -81 -106 -68 0 3 11 27 24 53 30 61 51
127 72 232 25 128 119 437 154 504 37 72 39 127 10 257 -36 161 -39 347 -6
320 10 -9 14 3 19 56 4 38 7 85 7 106 0 42 13 48 31 15 12 -22 12 -22 20 -3 4
11 22 70 40 132 27 90 36 110 46 101 8 -6 15 -9 17 -7 3 2 18 42 35 89 35 96
68 225 77 306 4 29 10 51 14 49 5 -3 11 -31 15 -63 10 -89 20 -95 49 -32 14
30 26 64 26 75 1 19 1 19 14 3 7 -10 16 -18 19 -18 2 0 15 55 27 122 22 117
22 124 6 197 -9 43 -12 79 -7 84 13 13 -63 182 -106 236 -69 84 -119 129 -154
136 -19 4 -44 11 -57 16 l-22 9 24 47 c17 32 31 86 41 158 22 147 56 313 100
481 l35 137 -55 100 c-64 117 -101 206 -111 266 -7 42 -6 43 16 36 45 -14 116
-9 158 12 23 11 42 17 42 12 0 -18 19 -8 54 29 l37 37 25 -28 c13 -15 29 -48
35 -73 15 -58 25 -63 46 -20 9 20 20 36 23 36 4 0 12 -36 19 -81 14 -90 19
-109 31 -109 16 0 52 61 65 108 l13 47 1 -97 c1 -53 5 -100 11 -103 16 -10 68
26 94 65 38 56 49 104 44 199 l-5 86 25 -55 c21 -47 26 -52 33 -35 15 38 9
138 -10 182 -13 28 -16 43 -8 46 16 5 -17 86 -58 140 -39 51 -106 97 -188 128
-47 18 -66 33 -106 83 -61 76 -200 198 -282 248 -224 136 -494 149 -727 36
-53 -25 -91 -56 -183 -149 -63 -64 -125 -121 -137 -128 -35 -19 -78 -13 -113
16 -43 37 -59 80 -59 160 1 73 19 135 84 280 47 104 90 290 80 347 -16 100
-59 173 -121 205 -30 15 -107 14 -146 -2 -18 -8 -57 -36 -87 -64 -30 -27 -80
-65 -110 -85 -30 -19 -61 -42 -69 -51 -17 -21 -11 -23 92 -31 114 -8 163 -23
193 -59 23 -28 26 -38 22 -92 -3 -49 -17 -87 -75 -210 -103 -219 -108 -236
-108 -395 0 -115 3 -146 24 -208 25 -78 83 -175 135 -230 44 -47 118 -92 147
-90 13 1 47 -13 75 -30 59 -37 161 -77 222 -87 47 -8 49 -5 26 30 -9 14 -15
25 -13 25 2 0 26 -7 53 -15 27 -8 67 -15 88 -15 22 0 47 -4 57 -9 21 -12 199
-212 235 -265 33 -49 66 -155 66 -211 0 -72 -35 -161 -141 -360 -55 -104 -105
-194 -110 -200 -6 -5 -58 -11 -117 -12 -59 -1 -129 -5 -157 -7 -27 -3 -88 -5
-135 -5 -51 0 -124 -8 -185 -21 -55 -12 -123 -21 -150 -21 -28 1 -77 -8 -109
-19 -73 -25 -76 -25 -76 1 0 16 -4 19 -17 14 -59 -25 -112 -43 -141 -48 -30
-6 -33 -5 -27 13 8 24 15 24 -91 -1 l-88 -21 -15 21 c-14 19 -20 20 -56 10
-22 -6 -61 -8 -90 -4 -71 9 -82 9 -155 -6 -109 -21 -171 4 -214 86 -16 29 -17
38 -7 44 10 7 6 24 -18 78 -26 60 -50 138 -51 167 0 5 7 3 15 -4 26 -21 28 -4
11 72 -27 116 -27 110 -4 102 19 -6 20 -3 14 22 -4 16 -11 92 -16 169 -4 77
-13 156 -19 175 -14 46 -14 50 4 44 22 -9 19 13 -14 108 -19 53 -26 85 -19 89
12 8 -31 139 -63 194 -17 28 -18 35 -6 35 28 0 -31 93 -113 175 -72 73 -80 86
-95 145 -22 85 -68 171 -126 234 -49 53 -104 92 -112 79 -5 -9 25 -188 43
-252 14 -52 9 -61 -15 -24 -25 37 -228 253 -239 253 -4 0 -7 -36 -5 -79 4 -70
9 -89 46 -160 l42 -81 -39 0 c-29 0 -40 -4 -40 -15 0 -9 -9 -15 -24 -15 -39 0
-58 -10 -46 -25 8 -9 3 -17 -17 -30 -16 -10 -36 -27 -45 -39 -19 -23 -24 -56
-8 -56 46 0 -71 -76 -185 -121 -49 -18 -100 -45 -115 -59 -25 -24 -27 -31 -28
-115 l0 -90 42 -41 c50 -51 96 -66 159 -51 40 9 57 6 162 -27 64 -20 125 -36
135 -36 27 0 35 -72 20 -157 -7 -37 -14 -97 -15 -133 -1 -40 -12 -93 -29 -138
-31 -86 -31 -93 -9 -85 13 5 15 3 8 -13 -23 -54 -55 -152 -55 -172 0 -19 4
-22 21 -17 20 7 20 6 4 -25 -35 -68 -58 -180 -37 -180 5 0 3 -30 -4 -67 -7
-38 -13 -83 -14 -100 0 -35 14 -44 24 -17 14 36 16 2 5 -92 -13 -121 -3 -287
16 -261 18 25 25 10 25 -58 0 -56 33 -211 58 -275 9 -22 11 -23 17 -7 12 30
22 19 40 -50 20 -77 64 -183 76 -183 4 0 9 5 11 11 2 6 16 -19 31 -57 15 -38
44 -91 65 -119 l37 -50 5 35 6 35 18 -34 c24 -45 91 -117 143 -152 48 -33 53
-35 53 -14 0 8 2 15 5 15 27 0 256 -152 293 -194 46 -52 85 -169 142 -421 29
-127 72 -286 97 -355 66 -183 71 -205 83 -385 17 -245 -3 -316 -87 -301 -76
14 -74 11 -50 64 20 44 22 65 25 295 l3 248 -30 92 c-17 51 -48 173 -70 272
-21 99 -58 240 -81 313 -38 123 -45 135 -78 158 -52 36 -174 114 -178 114 -4
0 32 -126 51 -180 33 -92 65 -240 80 -366 16 -138 19 -153 58 -254 37 -95 50
-204 49 -390 -2 -176 -7 -231 -27 -269 -12 -24 -15 -25 -146 -26 -127 -1 -144
-4 -333 -53 -109 -29 -212 -52 -227 -52 -23 0 -33 9 -55 45 -38 66 -65 161
-62 220 3 49 4 50 33 48 17 -1 100 3 185 9 120 8 176 17 249 39 51 16 106 29
121 29 34 0 75 44 90 98 22 79 12 95 -67 105 -67 8 -101 40 -145 133 l-39 83
25 48 c45 90 72 213 46 213 -6 0 -38 -18 -71 -40 -33 -22 -62 -40 -65 -40 -2
0 -4 15 -4 33 0 44 -10 77 -24 77 -6 0 -41 -21 -77 -46 l-67 -46 -38 26 c-63
41 -155 74 -271 96 -59 12 -160 32 -224 45 -330 69 -579 71 -789 9 -103 -30
-222 -95 -281 -154 l-57 -55 2 56 c1 67 -20 99 -66 99 -43 0 -68 -17 -84 -57
-14 -32 -13 -38 6 -77 11 -23 20 -45 20 -49 0 -3 -20 -9 -45 -13 -46 -6 -53
-19 -22 -38 11 -7 34 -6 78 2 33 7 63 11 66 8 3 -3 0 -35 -7 -72 -16 -82 -8
-203 16 -264 10 -25 35 -74 57 -110 l39 -65 -18 -45 c-24 -63 -27 -119 -11
-240 8 -58 13 -106 13 -107 -5 -6 -136 21 -136 28 0 4 14 42 31 84 17 42 29
79 26 81 -2 2 -31 -20 -64 -50 l-60 -55 8 47 c4 26 10 117 13 202 l6 155 -19
-40 c-10 -22 -29 -79 -42 -127 -13 -49 -26 -88 -30 -88 -3 0 -9 31 -12 68 -9
91 -41 213 -77 290 -30 65 -45 82 -30 35 8 -27 22 -383 14 -383 -7 0 -74 226
-88 300 -23 120 -29 291 -17 440 16 183 40 370 50 396 14 33 191 72 381 84
133 8 175 15 300 50 221 62 268 70 413 70 156 0 335 -24 544 -74 180 -43 241
-52 453 -66 91 -6 190 -13 220 -16 50 -6 53 -5 35 9 -49 36 -168 88 -231 101
-38 8 -120 19 -183 25 -111 10 -120 13 -250 75 -168 79 -200 89 -279 90 l-62
1 27 20 c31 22 99 82 249 218 53 48 123 102 155 120 32 18 59 36 59 41 0 13
-95 -2 -166 -25 -77 -25 -145 -66 -287 -172 -62 -46 -130 -95 -152 -107 -34
-20 -26 -9 51 71 91 95 147 171 243 331 70 117 119 178 190 235 33 26 58 49
57 51 -6 6 -186 -76 -243 -110 -30 -18 -85 -61 -122 -95 -60 -54 -76 -78 -140
-205 -92 -183 -145 -251 -65 -85 50 105 61 139 90 285 43 216 77 352 114 454
16 45 28 83 26 85 -6 6 -123 -151 -184 -247 -79 -127 -96 -160 -163 -330 -32
-80 -58 -136 -58 -125 -1 37 38 163 87 277 l49 113 6 155 c4 85 9 180 12 210
l6 55 -21 -38 c-12 -22 -36 -85 -55 -140 -18 -56 -43 -127 -55 -157 -12 -30
-44 -140 -70 -245 -27 -104 -49 -181 -49 -170 -1 53 22 178 49 273 28 96 29
110 19 171 -15 96 -79 423 -86 441 -7 18 -28 -73 -43 -190 -6 -47 -20 -131
-31 -188 -10 -57 -19 -135 -20 -175 l-1 -72 -18 80 c-10 44 -39 132 -65 195
-26 63 -52 127 -58 143 -6 15 -14 27 -17 27 -3 0 -3 -85 0 -188 l5 -188 72
-120 c88 -146 145 -285 177 -430 26 -115 42 -223 33 -214 -3 3 -27 82 -52 175
-87 321 -134 421 -300 640 -74 98 -195 230 -195 213 0 -3 15 -42 33 -85 59
-136 105 -283 137 -438 37 -175 73 -280 124 -358 96 -151 95 -149 20 -75 -139
134 -326 245 -465 274 -51 11 -102 14 -166 11 l-93 -5 0 28 c0 16 7 80 15 142
39 295 133 699 181 771 35 53 98 80 279 117 83 17 154 35 159 40 13 13 -21 27
-154 60 -151 38 -175 50 -189 93 -14 42 -7 65 98 322 102 248 150 340 202 391
38 37 44 39 117 44 l77 5 -3 140 c-7 306 53 450 293 695 210 215 315 343 463
561 146 215 231 263 522 294 248 26 482 56 504 65 18 6 16 9 -19 19 -22 6 -96
21 -165 32 -284 47 -315 57 -334 112 -17 47 9 79 152 194 187 150 238 188 377
280 508 339 895 526 1207 583 143 27 413 37 562 21 60 -6 111 -9 114 -6 9 9
-23 71 -57 108 -20 22 -30 41 -25 47 12 11 217 73 317 95 96 21 132 17 268
-30 128 -45 157 -44 354 13 195 57 281 73 425 82 122 7 180 6 349 -5z m2618
-721 c200 -113 293 -173 428 -274 271 -203 427 -363 573 -588 136 -209 137
-210 244 -272 178 -103 259 -184 333 -335 63 -128 68 -170 8 -65 -58 101 -186
237 -253 268 -25 11 -93 43 -152 70 l-107 50 -41 82 c-132 262 -283 446 -553
673 -120 101 -389 305 -528 400 -46 31 -81 57 -77 57 4 0 61 -30 125 -66z
m-7763 -1286 c-33 -56 -82 -116 -195 -235 -171 -179 -217 -235 -305 -368 -153
-232 -239 -423 -374 -825 -145 -430 -229 -793 -275 -1190 -28 -240 -40 -614
-27 -852 6 -117 10 -214 8 -216 -5 -5 -44 209 -61 343 -9 66 -19 206 -22 310
-10 342 24 624 122 1012 109 431 214 716 409 1118 180 370 322 562 601 815
102 93 137 118 119 88z m4020 -1778 c-1 -97 -27 -266 -66 -424 -15 -63 -29
-98 -49 -120 l-28 -31 -98 34 c-54 19 -101 37 -104 40 -9 8 174 384 244 501
31 52 60 111 64 130 l7 35 15 -35 c11 -25 15 -63 15 -130z m4575 -270 c-16
-43 -38 -98 -50 -122 -32 -62 -24 -165 19 -242 18 -31 32 -65 32 -77 0 -12 16
-43 35 -69 20 -27 40 -63 47 -82 6 -18 27 -60 47 -92 35 -57 36 -63 39 -170 4
-118 -10 -225 -31 -238 -14 -9 -117 -11 -117 -2 0 4 20 70 46 148 57 178 63
216 38 253 -11 15 -33 55 -50 88 -17 33 -42 83 -57 110 -60 117 -86 183 -93
236 l-6 57 -62 -47 c-35 -25 -77 -53 -93 -62 l-31 -17 15 -58 c8 -33 21 -66
28 -74 7 -8 15 -31 19 -51 4 -20 15 -47 26 -59 11 -13 20 -28 20 -34 0 -6 21
-41 47 -79 l47 -68 -18 -127 c-9 -70 -20 -142 -23 -160 -10 -62 -11 -62 -267
-62 -128 0 -235 3 -238 6 -4 3 -2 19 3 36 4 17 13 64 19 106 6 42 15 79 21 82
16 11 31 109 32 223 1 59 4 107 8 107 4 0 6 48 5 108 l-1 107 35 2 c134 6 229
34 311 91 55 39 133 140 170 222 20 45 47 90 53 90 2 0 -10 -36 -25 -80z
m-3554 -270 c23 -11 52 -20 66 -20 13 0 44 -7 68 -16 30 -10 46 -12 51 -5 4 7
13 6 26 -3 20 -15 24 -89 25 -516 l0 -145 -93 -3 c-51 -2 -116 0 -145 3 l-52
6 -37 112 c-20 62 -38 138 -41 169 -5 54 -3 61 36 127 38 63 89 172 105 228 6
17 -4 29 -54 68 -33 25 -65 56 -71 68 -8 15 1 10 31 -16 24 -20 62 -46 85 -57z
m434 -450 c6 -19 11 -56 11 -82 0 -25 9 -74 19 -107 l19 -61 -22 -6 c-12 -3
-45 -4 -72 -2 l-49 3 1 90 c1 58 8 117 22 165 11 41 23 113 27 160 13 185 20
193 26 30 3 -85 11 -171 18 -190z m-625 268 c-9 -18 -32 -58 -50 -89 -19 -31
-34 -67 -34 -80 0 -14 25 -96 54 -184 30 -88 54 -160 53 -161 -9 -8 -146 -14
-151 -6 -3 5 -8 59 -12 119 -8 130 7 228 42 276 12 18 42 60 66 95 23 34 44
62 45 62 2 0 -4 -15 -13 -32z m1785 -50 c23 -40 52 -89 64 -108 28 -45 26
-122 -5 -240 l-23 -85 -40 -3 c-22 -1 -65 1 -95 5 l-55 8 -6 65 c-9 87 6 274
27 350 17 61 33 78 76 79 10 1 31 -26 57 -71z m-264 -184 c17 -124 22 -225 12
-241 -10 -15 -103 -18 -112 -3 -11 17 17 184 40 240 12 30 25 68 29 84 4 15 9
26 12 23 3 -3 11 -49 19 -103z m525 -136 c7 -53 9 -109 6 -123 -6 -22 -11 -26
-34 -21 -15 2 -44 7 -64 11 -21 3 -38 11 -38 18 0 7 11 46 24 88 13 43 29 109
36 148 l13 70 22 -47 c12 -26 28 -91 35 -144z m-55 -243 c280 -42 548 -85 553
-89 2 -2 -23 -12 -55 -21 -86 -24 -133 -56 -203 -135 -109 -123 -176 -141
-500 -137 -167 2 -271 -10 -285 -33 -3 -5 28 -13 67 -19 199 -31 243 -53 309
-152 42 -62 114 -238 158 -388 17 -58 33 -106 34 -108 7 -7 -5 130 -19 222
-27 170 -84 338 -128 374 -34 29 -13 29 64 2 44 -15 98 -41 120 -56 83 -58
159 -180 214 -347 59 -177 127 -568 129 -751 l2 -119 -43 -15 c-24 -8 -46 -12
-49 -10 -2 3 -18 97 -34 209 -45 314 -85 526 -95 515 -3 -2 0 -53 5 -113 6
-60 15 -202 21 -316 5 -113 13 -238 16 -277 6 -65 5 -71 -12 -71 -10 0 -45 19
-78 42 -54 38 -68 43 -126 46 l-66 4 -12 112 c-11 105 -58 322 -81 376 -9 19
-11 -44 -9 -245 3 -235 1 -270 -12 -273 -13 -2 -19 26 -34 160 -56 510 -136
835 -235 958 -25 30 -26 25 -5 -31 50 -142 97 -556 120 -1051 8 -174 13 -169
-109 -117 -110 47 -182 54 -258 24 -13 -5 -17 11 -27 97 -22 186 -87 462 -133
563 l-19 40 5 -35 c26 -197 58 -702 47 -742 -6 -25 -39 -21 -135 16 -48 18
-87 26 -132 26 -77 0 -66 -30 -94 260 -40 406 -97 739 -151 878 -31 79 -92
168 -141 204 l-31 23 35 6 c20 3 111 2 204 -2 205 -8 246 -21 318 -93 97 -98
162 -256 245 -592 29 -115 54 -211 57 -214 3 -3 3 70 0 162 -11 307 -95 608
-202 727 -73 81 -174 101 -518 101 l-208 0 -70 71 c-38 38 -88 79 -112 89 -23
10 -107 30 -187 44 -170 30 -247 54 -327 103 -32 19 -69 40 -83 45 l-25 11 35
10 c21 6 330 11 780 12 693 3 756 4 895 24 83 11 168 22 190 25 77 8 251 -4
420 -29z m-8190 -221 c19 -201 66 -546 100 -736 39 -214 63 -407 74 -603 6
-99 18 -220 26 -270 8 -49 12 -91 10 -93 -7 -7 -83 242 -104 339 -49 231 -115
688 -131 914 -15 216 -11 639 6 622 2 -2 11 -79 19 -173z m4701 0 c-64 -255
-72 -398 -32 -555 28 -109 93 -279 129 -337 36 -56 115 -226 132 -286 24 -80
20 -260 -10 -423 -51 -277 -95 -397 -158 -433 -24 -13 -37 -13 -139 9 -62 12
-114 24 -116 26 -2 1 10 24 27 50 16 26 66 130 111 232 45 101 106 237 137
301 66 141 93 207 93 230 0 27 -73 206 -124 307 -26 50 -54 113 -62 142 -8 28
-21 54 -29 57 -7 2 -16 26 -20 53 -3 26 -13 63 -21 81 -9 20 -14 66 -14 122 0
129 -2 131 -69 67 -31 -30 -89 -75 -128 -100 l-70 -45 23 -109 c27 -132 46
-184 118 -337 76 -161 106 -248 106 -307 0 -57 -55 -235 -132 -428 -63 -158
-71 -174 -121 -228 -48 -52 -84 -73 -126 -73 l-30 0 32 56 c18 31 47 73 65 94
17 21 32 41 32 44 0 9 -80 -32 -103 -52 -9 -8 -19 -13 -22 -10 -8 8 52 175 84
234 16 30 26 54 21 54 -34 0 -180 -163 -180 -201 0 -10 -4 -19 -9 -19 -13 0
-24 206 -16 292 3 40 13 126 21 190 9 65 14 123 11 130 -8 21 -77 -141 -104
-242 -19 -72 -26 -131 -30 -245 l-6 -150 -18 53 c-10 29 -32 76 -48 105 -29
51 -140 182 -147 174 -2 -2 13 -42 35 -88 31 -68 101 -282 101 -312 0 -3 -19
14 -42 40 -38 41 -116 89 -126 78 -3 -2 11 -26 31 -52 19 -26 49 -76 66 -110
l31 -62 -55 -15 c-30 -9 -80 -23 -111 -32 -30 -9 -57 -14 -59 -12 -2 2 1 33 7
68 9 55 8 89 -12 220 -24 169 -30 386 -11 433 6 16 11 53 11 84 0 47 2 54 16
49 15 -6 16 2 11 76 -3 46 -9 94 -13 108 -7 22 -6 24 9 11 15 -12 17 -9 16 30
0 24 -4 65 -8 90 -5 33 -4 49 6 58 8 7 12 20 9 29 -2 9 -8 55 -11 101 -7 75
-6 83 9 78 9 -4 46 -10 82 -13 65 -7 66 -7 62 17 -3 22 0 23 37 19 22 -2 67
-5 100 -5 49 0 60 3 59 16 -1 13 11 18 52 23 83 10 136 32 257 107 198 123
278 223 368 461 18 48 35 86 37 84 1 -2 -8 -48 -22 -102z m4848 27 c-5 -5
-119 -23 -254 -41 -298 -39 -416 -62 -475 -91 -25 -12 -45 -25 -45 -28 0 -3
28 -16 63 -27 34 -12 102 -36 152 -54 78 -29 98 -32 163 -28 89 6 76 -5 -33
-29 -46 -10 -118 -36 -170 -63 -107 -54 -121 -74 -154 -218 -43 -186 -46 -188
-45 -29 1 78 2 150 3 159 2 28 58 85 122 124 33 19 57 39 54 43 -20 33 -241
53 -396 35 -44 -5 -61 -4 -58 4 9 25 168 155 224 183 51 25 85 32 220 48 171
20 648 29 629 12z m1355 4 c-3 -2 -59 -20 -124 -39 -167 -48 -248 -80 -308
-122 -29 -19 -108 -73 -177 -118 -140 -92 -184 -136 -219 -216 -101 -230 -168
-342 -221 -370 -16 -8 -13 -1 12 32 51 66 87 158 114 286 13 64 36 142 52 172
15 30 29 59 31 64 6 16 -131 -2 -223 -29 -120 -35 -180 -67 -254 -139 l-64
-61 37 65 c120 212 187 253 449 271 l139 9 174 70 c177 72 268 94 483 119 102
12 104 12 99 6z m-10369 -79 c47 -18 140 -66 207 -108 67 -43 149 -91 182
-108 34 -17 61 -32 61 -34 0 -2 -28 8 -62 23 -55 22 -77 26 -168 26 -98 0
-110 -2 -177 -34 -39 -18 -82 -45 -95 -59 l-23 -25 25 6 c114 27 190 17 360
-46 l114 -42 -129 -12 c-163 -16 -254 -35 -334 -73 -35 -17 -65 -29 -67 -28
-4 4 -34 452 -34 509 0 49 0 49 28 43 15 -4 65 -21 112 -38z m5724 -46 c130
-19 197 -39 239 -73 9 -8 33 -48 53 -88 28 -59 53 -91 124 -159 78 -75 90 -92
104 -140 24 -84 46 -225 51 -320 l5 -85 -15 65 c-28 125 -66 244 -92 292 -58
106 -205 200 -351 223 -48 8 -166 31 -262 52 l-175 38 65 3 c36 2 150 -2 253
-8 104 -6 191 -9 195 -6 11 12 -62 76 -127 110 -36 19 -103 48 -148 64 -45 17
-93 38 -105 47 -23 16 -23 16 12 10 19 -3 97 -14 174 -25z m3296 -585 c-14 -8
-85 -40 -158 -71 -160 -68 -192 -88 -215 -135 -26 -54 -47 -179 -47 -284 0
-98 -20 -234 -44 -300 -13 -37 -14 -30 -10 110 7 262 13 389 20 438 5 34 3 47
-6 47 -25 0 -69 -63 -100 -142 -17 -45 -50 -109 -75 -143 -24 -34 -59 -88 -79
-121 -36 -59 -44 -65 -27 -21 5 13 23 93 41 178 36 180 63 242 129 301 59 53
103 68 326 108 94 17 186 34 205 39 53 13 68 12 40 -4z m-3388 -305 c42 -286
42 -415 0 -549 l-29 -94 -54 94 -54 94 1 150 c1 160 27 367 66 530 l22 90 8
-50 c4 -27 22 -147 40 -265z m-284 7 c87 -176 93 -198 80 -286 l-11 -75 -40
44 c-62 70 -74 107 -87 275 -7 83 -15 155 -18 160 -3 6 1 4 10 -3 8 -7 38 -58
66 -115z m432 -250 l-60 -100 0 107 c0 118 9 152 76 291 l39 80 3 -139 3 -138
-61 -101z m338 241 c-72 -110 -141 -268 -225 -513 -35 -104 -80 -221 -98 -260
-36 -74 -108 -165 -121 -153 -4 4 -8 70 -8 145 -1 155 2 166 83 339 72 151
136 238 263 358 62 58 115 106 117 106 2 0 -3 -10 -11 -22z m-1035 -98 c95
-132 121 -179 185 -337 47 -113 82 -233 97 -328 l6 -40 -30 35 c-37 43 -93
144 -154 276 -52 110 -198 504 -188 504 3 0 41 -49 84 -110z m-4878 30 c0 -42
-18 -49 -34 -14 -9 20 -9 30 0 40 19 23 34 11 34 -26z m9199 -220 l64 -60 52
35 c60 40 96 52 119 38 9 -5 28 -32 43 -60 28 -50 28 -50 87 -57 32 -4 61 -10
65 -13 4 -4 -26 -16 -66 -28 -46 -13 -74 -17 -77 -10 -22 65 -67 145 -80 145
-22 0 -56 -24 -112 -77 l-45 -43 -40 57 c-21 31 -56 70 -77 87 l-37 30 -46
-45 c-25 -24 -59 -72 -76 -106 l-30 -62 -52 21 c-28 11 -72 26 -98 33 -62 17
-68 9 -75 -94 -5 -74 -7 -79 -24 -70 -10 5 -45 12 -79 16 l-60 6 0 -30 c0 -56
20 -137 49 -200 l29 -61 -49 -7 c-70 -10 -173 -64 -177 -92 -6 -43 81 -146
167 -195 l39 -22 -108 -42 c-135 -53 -175 -78 -233 -146 -46 -54 -137 -114
-320 -212 -48 -26 -95 -59 -104 -73 -13 -20 -19 -62 -25 -177 -9 -179 -19
-233 -63 -347 -28 -70 -65 -228 -65 -275 0 -21 73 -23 174 -4 56 10 146 21
200 25 124 8 165 22 269 90 93 60 185 95 252 95 77 0 118 30 300 215 183 187
220 213 340 240 39 9 108 15 173 14 116 -1 123 1 196 44 28 16 83 42 124 58
73 29 404 130 409 125 2 -2 -79 -42 -179 -90 -101 -49 -239 -124 -307 -169
l-123 -81 -117 -7 c-262 -17 -327 -50 -504 -257 l-77 -90 85 -7 c47 -4 170 -6
272 -3 264 6 241 -1 -422 -128 -190 -36 -215 -46 -257 -102 -38 -49 -358 -375
-358 -365 0 11 101 194 141 256 21 33 39 66 39 74 0 16 3 15 -40 2 -19 -6
-111 -14 -205 -19 -241 -12 -522 -57 -598 -96 -18 -9 -59 -38 -92 -64 -33 -26
-94 -69 -135 -95 -41 -27 -123 -86 -183 -132 -59 -47 -162 -118 -230 -160
-129 -80 -209 -147 -200 -169 8 -23 82 -43 273 -74 320 -53 561 -117 668 -176
l44 -24 56 19 c32 11 95 25 142 31 99 13 155 39 242 109 92 74 120 82 363 92
116 5 242 16 281 24 66 15 359 46 414 44 40 -1 -37 -26 -182 -59 -70 -16 -176
-44 -235 -64 -59 -19 -148 -44 -197 -55 -113 -27 -163 -49 -203 -91 -32 -33
-183 -251 -183 -265 0 -3 19 -4 43 -1 23 3 69 2 102 -2 l60 -7 -90 -29 c-49
-15 -111 -39 -136 -52 -25 -12 -83 -32 -129 -44 -112 -29 -172 -61 -247 -133
-35 -33 -65 -58 -68 -55 -9 9 90 152 129 186 21 18 75 50 120 71 101 47 138
87 207 229 28 57 50 105 48 107 -2 2 -31 -8 -64 -21 -33 -14 -129 -45 -213
-70 -85 -24 -179 -58 -210 -73 -121 -62 -290 -244 -373 -403 -37 -70 -72 -120
-110 -158 -106 -106 -355 -230 -610 -304 -85 -24 -215 -65 -289 -91 -136 -46
-347 -105 -378 -105 -20 0 329 173 473 234 55 24 165 64 245 89 224 71 420
174 501 264 19 21 50 66 69 98 69 122 136 213 232 311 l98 101 -50 22 c-88 38
-234 71 -534 121 -302 50 -383 71 -447 116 -70 48 -72 84 -6 167 16 21 27 41
23 44 -3 3 -43 1 -88 -6 -105 -16 -473 -25 -553 -14 -60 9 -60 9 75 21 198 19
410 50 530 78 112 26 275 78 300 95 10 7 -60 8 -230 2 -294 -10 -825 -7 -895
5 -39 6 -5 10 155 15 443 16 727 43 979 92 254 50 365 96 522 217 53 41 127
93 165 115 103 61 113 76 140 200 13 59 42 156 64 216 22 59 43 127 47 152 7
55 13 54 -162 18 -122 -25 -146 -27 -390 -27 -152 0 -270 5 -284 11 -19 7 10
11 125 16 254 12 369 29 494 76 59 22 130 74 118 86 -4 4 -186 2 -405 -5 -502
-16 -665 -6 -1037 66 -118 23 -293 71 -284 78 1 2 55 -8 118 -22 103 -22 140
-25 350 -26 223 -1 330 7 463 36 26 5 47 13 47 17 0 4 -116 18 -257 30 -360
31 -537 70 -582 127 -20 25 -20 25 -72 10 -28 -9 -67 -27 -85 -41 -31 -24 -34
-25 -34 -7 0 11 10 27 23 35 22 16 21 16 -13 10 -52 -8 -219 -62 -262 -84 -42
-22 -62 -51 -53 -79 3 -11 34 -35 68 -55 75 -42 60 -46 -27 -6 -132 60 -130
139 7 206 l72 36 -145 -5 c-284 -10 -583 -51 -706 -97 -31 -12 -70 -34 -88
-50 l-31 -29 37 -32 c21 -18 54 -46 74 -62 33 -27 35 -31 19 -42 -40 -29 -239
-60 -600 -94 -385 -36 -539 -72 -581 -135 -29 -45 -6 -76 120 -159 152 -100
216 -175 216 -253 0 -47 -38 -110 -87 -142 -90 -60 -126 -69 -603 -161 -323
-62 -452 -92 -527 -125 -70 -32 -93 -51 -93 -81 0 -52 69 -81 409 -168 311
-81 398 -113 462 -175 92 -89 74 -168 -51 -231 -94 -47 -198 -70 -635 -135
-158 -24 -361 -69 -377 -84 -4 -3 9 -42 28 -86 71 -161 74 -160 -69 -13 -109
113 -143 142 -196 167 -65 30 -81 35 -263 70 -138 27 -193 55 -258 131 -30 35
-77 87 -105 116 -52 55 -56 56 -300 127 l-50 15 40 1 c52 1 225 -25 295 -45
48 -13 66 -27 143 -105 104 -107 146 -129 302 -159 165 -31 233 -49 303 -77
l63 -25 107 26 c119 28 211 44 482 81 372 51 464 92 385 171 -37 37 -94 58
-316 114 -313 78 -406 113 -497 187 -126 103 -87 201 110 279 135 53 435 115
862 179 206 31 233 39 278 85 83 83 33 158 -199 300 -127 77 -160 116 -198
232 -37 113 -71 173 -114 201 -120 80 -203 124 -261 138 -59 15 -62 18 -37 24
56 15 162 -1 231 -33 129 -61 148 -79 211 -209 31 -65 59 -120 60 -122 2 -1
19 8 37 22 101 75 223 104 672 157 402 48 407 50 329 128 -61 61 -121 97 -198
116 -89 24 -146 20 -232 -14 -41 -16 -86 -30 -99 -30 -13 0 -69 22 -124 50
-100 50 -224 92 -313 105 -26 4 -50 12 -53 17 -4 6 62 8 174 6 l180 -3 79 -53
78 -54 80 40 c44 23 95 44 113 47 45 9 111 -15 222 -80 51 -30 96 -55 101 -55
5 0 46 16 92 35 220 90 401 120 1052 171 110 8 207 17 215 20 10 4 7 11 -15
28 l-29 23 23 12 c12 7 75 30 138 51 l116 38 -74 34 c-41 19 -90 41 -109 49
l-34 16 73 43 c78 45 249 120 275 120 8 0 18 4 21 10 3 5 -21 17 -55 26 -33
10 -60 20 -60 24 0 4 24 18 53 31 41 19 70 24 137 24 78 0 92 -3 168 -38 99
-46 116 -44 203 19 33 25 72 49 85 55 47 17 123 10 197 -19 40 -16 85 -32 100
-36 42 -10 100 10 164 58 133 99 179 104 303 32 122 -71 127 -71 196 -25 78
51 144 73 200 65 55 -7 87 -23 144 -73 43 -38 49 -40 131 -47 47 -4 135 -18
195 -31 60 -14 110 -25 111 -25 2 0 -6 15 -17 32 -26 43 -52 163 -48 219 l3
44 83 0 82 -1 0 56 c0 88 6 100 50 100 21 0 67 -9 102 -20 34 -11 68 -20 74
-20 6 0 28 25 48 56 21 31 56 76 78 100 39 43 41 43 69 29 16 -9 57 -42 93
-75z m-3210 -107 c-91 -113 -229 -260 -277 -295 l-27 -20 24 65 c46 123 86
177 183 249 59 43 164 108 176 108 4 0 -32 -48 -79 -107z m-767 -82 c100 -134
140 -212 164 -323 21 -94 24 -247 5 -265 -10 -10 -80 70 -106 122 -10 22 -35
103 -54 180 -40 161 -69 246 -120 362 -20 45 -36 87 -36 95 0 16 51 -43 147
-171z m-414 85 c67 -50 114 -109 150 -190 10 -21 16 -40 15 -42 -2 -2 -34 16
-71 39 -69 44 -78 54 -167 197 -60 95 -59 95 73 -4z m4364 -29 c29 -43 53 -83
52 -90 0 -7 -19 -26 -43 -43 l-43 -31 -19 28 c-10 16 -39 43 -62 60 -39 28
-43 35 -38 62 9 45 54 99 79 95 13 -2 40 -31 74 -81z m237 -4 c23 -70 30 -137
17 -161 -6 -12 -31 -35 -55 -52 l-44 -30 -12 36 c-7 20 -26 51 -43 70 -28 33
-29 37 -16 62 18 35 106 122 124 122 7 0 20 -21 29 -47z m-549 -65 c25 -12 45
-27 45 -32 0 -6 -7 -33 -15 -60 -8 -27 -15 -64 -15 -83 0 -18 -3 -33 -6 -33
-3 0 -24 14 -45 31 l-39 31 0 77 c0 102 2 104 75 69z m765 -57 c0 -67 -28
-169 -42 -149 -4 7 -8 26 -8 41 0 45 -17 67 -50 67 -33 0 -38 16 -19 51 12 23
62 48 97 49 20 0 22 -4 22 -59z m-3490 25 c0 -2 -85 -85 -190 -184 -189 -180
-189 -180 -316 -242 -69 -33 -128 -60 -130 -58 -5 5 131 164 186 217 73 72
177 140 315 207 138 67 135 66 135 60z m2934 -71 c29 -35 30 -37 17 -83 -6
-25 -14 -48 -15 -50 -2 -2 -15 8 -29 22 -36 36 -52 33 -75 -16 l-20 -43 -7 38
c-10 50 -2 123 18 171 l17 38 32 -20 c18 -12 46 -37 62 -57z m-4209 -46 c78
-40 193 -128 250 -191 39 -44 169 -212 188 -245 9 -15 -100 18 -169 52 -82 40
-141 92 -255 222 -57 65 -135 151 -173 191 l-71 73 85 -36 c47 -19 112 -49
145 -66z m3825 11 c22 -11 40 -22 40 -24 0 -2 -7 -17 -15 -32 -17 -33 -19 -75
-6 -122 13 -45 -4 -32 -33 26 -22 43 -56 143 -56 164 0 14 29 9 70 -12z m570
-22 c26 -57 26 -119 0 -143 -19 -17 -20 -17 -20 0 0 26 -39 85 -56 85 -8 0
-26 -12 -39 -26 -20 -21 -25 -23 -25 -10 0 28 27 84 54 111 38 38 63 33 86
-17z m264 -49 c-2 -70 -33 -136 -96 -203 -38 -40 -47 -45 -41 -26 4 14 8 52 8
85 0 58 -1 60 -27 63 -16 2 -28 8 -28 14 0 28 147 132 175 124 6 -2 9 -27 9
-57z m138 -11 c-7 -7 -12 -8 -12 -2 0 14 12 26 19 19 2 -3 -1 -11 -7 -17z
m-839 -166 c13 -20 43 -56 67 -79 23 -24 38 -43 32 -43 -18 0 -128 126 -151
172 -11 24 -21 58 -21 74 0 24 4 20 24 -29 14 -32 35 -75 49 -95z m17 131 c51
-34 80 -67 80 -92 0 -14 13 -54 30 -88 16 -35 26 -63 22 -63 -18 0 -123 119
-145 165 -47 95 -43 116 13 78z m905 -35 c-14 -48 -72 -132 -123 -179 -60 -55
-72 -59 -72 -26 0 28 -17 47 -43 47 -18 0 -18 1 -3 23 9 12 33 46 54 76 42 61
76 80 145 81 45 0 48 -1 42 -22z m84 3 c28 -18 -103 -187 -189 -245 -44 -29
-54 -17 -13 17 22 17 54 48 70 67 34 39 83 131 83 155 0 17 27 20 49 6z m-634
-22 c4 -11 4 -24 0 -27 -9 -9 -36 28 -29 39 9 15 22 10 29 -12z m-8605 -16
c80 -21 335 -19 467 4 l102 19 20 -46 c11 -25 22 -77 25 -116 3 -39 13 -90 21
-114 8 -24 13 -45 11 -48 -3 -2 -49 6 -103 18 -289 64 -275 62 -375 45 -51 -9
-117 -23 -148 -31 -66 -17 -66 -18 -110 98 -33 86 -35 103 -18 160 10 33 15
38 32 33 12 -4 46 -13 76 -22z m8468 -12 c20 -11 50 -30 66 -43 l28 -24 -46
-38 c-46 -38 -47 -38 -68 -20 -26 24 -48 75 -48 114 0 36 15 38 68 11z m-4253
-27 c33 -4 55 -19 123 -83 l83 -78 -49 8 c-52 8 -93 26 -202 89 -36 21 -82 44
-102 51 -21 7 -38 16 -38 20 0 8 104 3 185 -7z m1220 -45 c-50 -29 -108 -64
-130 -79 -95 -65 -186 -96 -317 -110 -46 -4 -84 -7 -86 -5 -1 1 40 20 91 43
52 22 147 72 211 111 65 39 134 73 154 77 20 3 42 7 47 9 6 2 35 4 65 4 l54 1
-89 -51z m3308 9 c-8 -63 -30 -98 -71 -115 -61 -25 -95 -27 -122 -5 -23 18
-23 21 -8 43 14 22 169 116 195 118 7 1 9 -13 6 -41z m-8990 -102 c37 -67 67
-126 67 -130 0 -3 -27 -6 -60 -6 -51 0 -65 4 -85 25 -21 20 -25 34 -25 85 0
62 17 150 29 150 4 0 37 -56 74 -124z m8429 32 l72 -53 -47 -13 -47 -13 0 -46
0 -45 -32 6 c-58 11 -120 50 -174 109 -30 32 -54 62 -54 67 0 9 72 39 122 49
48 11 81 -2 160 -61z m-7348 -63 l45 -100 -30 -3 c-70 -8 -109 68 -88 168 6
29 15 48 20 43 4 -4 29 -53 53 -108z m8062 -6 c-20 -102 -140 -168 -230 -127
-31 13 -43 45 -25 63 23 23 199 88 253 94 5 1 6 -13 2 -30z m-4416 -64 c160
-30 261 -52 266 -58 3 -2 -19 -15 -48 -28 -73 -33 -188 -33 -273 0 -62 24
-141 46 -210 56 -47 8 -36 17 47 39 70 19 73 19 218 -9z m4043 9 c26 -9 45
-20 41 -25 -3 -5 -26 -21 -52 -36 -67 -39 -129 -38 -216 6 -61 32 -76 48 -59
64 14 15 239 7 286 -9z m517 -35 c20 -16 47 -44 60 -61 l23 -31 -28 -23 c-59
-47 -194 -67 -260 -40 -41 18 -48 30 -7 15 15 -6 49 -8 77 -4 56 7 145 42 145
57 0 6 -8 7 -17 3 -31 -11 -139 -18 -178 -11 l-37 7 44 28 c25 16 55 45 68 66
19 31 27 36 47 30 14 -3 42 -19 63 -36z m-3645 10 c19 -7 18 -8 -3 -8 -13 -1
-71 -19 -130 -42 -146 -56 -216 -61 -317 -24 -41 15 -77 30 -79 34 -2 3 48 7
113 8 92 1 132 6 196 26 80 25 166 28 220 6z m2908 -62 c53 -26 73 -31 134
-32 49 0 66 -3 55 -9 -30 -17 -134 -12 -172 8 -42 22 -90 66 -89 80 0 6 3 5 6
-2 3 -7 33 -27 66 -45z m-93 -32 c24 -20 66 -42 98 -51 32 -8 62 -17 67 -19 6
-1 -15 -14 -45 -29 -45 -21 -69 -26 -137 -26 -90 0 -133 11 -133 35 0 26 38
92 62 109 32 22 41 20 88 -19z m425 -9 c109 -50 105 -47 105 -85 0 -67 -76
-151 -137 -151 -51 0 -138 76 -157 136 -6 18 2 26 46 52 29 16 62 39 72 51 11
12 22 20 25 18 3 -1 24 -11 46 -21z m-6691 -160 c66 -30 184 -121 172 -133 -7
-8 -124 45 -170 76 -39 27 -97 91 -82 91 3 0 39 -15 80 -34z m-1962 -5 c95
-16 221 -32 280 -36 l107 -7 71 -86 c39 -48 113 -138 164 -200 l93 -114 141
-68 c102 -49 164 -73 221 -84 175 -33 261 -119 317 -318 15 -51 35 -108 46
-125 11 -18 57 -60 103 -93 77 -55 87 -67 119 -133 36 -75 58 -151 33 -113
-69 106 -102 140 -195 201 -53 35 -106 72 -118 82 -42 37 -82 105 -125 210
-62 152 -83 171 -234 218 -66 20 -152 54 -191 76 -81 44 -134 52 -134 19 0
-36 42 -214 57 -245 9 -16 32 -53 53 -80 20 -28 45 -66 55 -85 14 -28 1 -18
-79 54 -79 73 -99 98 -116 143 -11 29 -20 58 -20 62 0 25 -85 271 -103 296
-12 17 -65 82 -118 145 -54 63 -106 125 -116 138 -14 17 -44 28 -123 46 -120
28 -402 124 -368 126 4 0 85 -13 180 -29z m1298 -146 c292 -27 321 -36 418
-128 37 -35 108 -97 157 -139 50 -42 117 -104 150 -139 64 -66 64 -66 -45 0
-62 37 -62 34 -16 -120 19 -62 33 -115 32 -117 -2 -2 -36 52 -74 120 -78 136
-128 200 -175 224 -66 35 -148 55 -272 70 -157 18 -195 24 -215 35 -10 5 5 8
40 9 64 0 280 32 280 41 0 10 -277 88 -430 120 -80 16 -149 32 -155 34 -26 9
157 3 305 -10z m6815 -9 c-33 -13 -100 -42 -150 -66 -49 -23 -123 -55 -163
-71 -108 -43 -115 -50 -156 -148 -20 -49 -55 -117 -76 -152 -22 -35 -54 -90
-71 -123 -17 -32 -33 -56 -35 -53 -12 12 20 138 51 203 18 39 41 97 50 130 10
32 28 82 41 110 33 71 71 87 360 154 194 44 234 49 149 16z m-3418 -46 c-17
-44 1 -80 57 -117 54 -37 51 -40 -17 -17 -48 16 -87 54 -87 83 0 20 37 81 49
81 5 0 4 -13 -2 -30z m988 -266 l110 -18 -55 -8 c-161 -24 -434 -6 -585 37
-46 14 -33 14 185 11 167 -2 267 -9 345 -22z m-1190 -109 c71 -9 130 -17 132
-19 5 -5 -96 -14 -232 -22 -120 -7 -416 11 -444 26 -8 5 28 11 85 15 54 3 104
8 109 10 27 9 234 3 350 -10z m-1908 -105 c40 -4 94 -18 120 -31 61 -29 149
-119 187 -189 l29 -55 -44 41 c-69 63 -124 90 -307 154 -93 33 -189 68 -213
79 l-44 19 100 -5 c55 -2 133 -8 172 -13z m3838 -338 c25 -6 34 -11 25 -15
-39 -15 -221 -30 -375 -31 -159 0 -413 20 -400 32 3 3 56 11 118 18 123 14
563 11 632 -4z m-2540 -298 c88 -9 166 -20 174 -24 39 -21 -497 -33 -714 -16
-129 10 -117 17 70 39 163 20 281 20 470 1z m628 -415 c70 -7 127 -16 127 -19
0 -11 -295 -30 -465 -30 -169 0 -426 17 -460 31 -17 7 -16 8 10 9 17 1 89 8
160 15 150 16 436 13 628 -6z m-1243 -244 c0 -44 -47 -97 -105 -121 l-40 -16
47 48 c57 57 68 96 44 157 l-16 42 35 -37 c26 -28 35 -47 35 -73z m2416 77
c-11 -18 25 -72 66 -96 64 -37 105 -50 327 -100 191 -43 335 -89 377 -120 15
-12 2 -11 -56 4 -41 11 -171 35 -289 55 -242 41 -315 61 -384 104 -46 30 -87
81 -87 110 0 16 29 51 42 51 5 0 7 -3 4 -8z m-749 -167 c103 -9 208 -19 233
-24 78 -13 -247 -36 -510 -36 -245 0 -551 21 -515 36 30 12 341 36 482 38 66
0 206 -6 310 -14z m-917 -269 c101 -10 186 -18 187 -20 11 -11 -680 -37 -817
-30 -47 2 -201 9 -343 15 -142 7 -254 16 -250 20 4 4 98 14 208 22 255 20 755
16 1015 -7z m1885 -33 c24 -14 -74 -23 -244 -22 -185 0 -261 17 -156 33 53 8
381 -1 400 -11z m-2410 -315 c80 -10 87 -12 60 -21 -41 -14 -510 -14 -560 -1
l-40 11 46 7 c163 27 310 28 494 4z m2220 -43 c110 -8 209 -15 219 -15 11 0
17 -2 15 -4 -2 -3 -96 -12 -209 -22 -278 -24 -662 -24 -940 0 -198 16 -260 25
-199 27 13 0 98 6 189 13 227 18 683 18 925 1z"/>
<path d="M1848 8144 c46 -42 120 -122 166 -178 46 -55 97 -113 113 -127 26
-24 219 -159 227 -159 4 0 -57 157 -84 217 -52 113 -190 209 -420 293 l-85 31
83 -77z"/>
<path d="M7885 7954 c-16 -2 -61 -10 -100 -16 l-70 -12 40 -7 c22 -4 125 -18
229 -30 168 -20 201 -21 309 -11 66 6 125 16 131 22 7 7 6 10 -4 10 -8 0 -85
9 -170 20 -166 21 -316 31 -365 24z"/>
<path d="M8855 7935 c-33 -7 -91 -16 -130 -20 l-70 -8 40 -14 c78 -28 169 -28
320 2 77 14 151 29 165 33 25 6 25 6 -5 13 -51 11 -257 8 -320 -6z"/>
<path d="M9376 7931 c38 -35 185 -42 249 -12 l40 19 -149 1 c-85 1 -146 -3
-140 -8z"/>
<path d="M9210 7853 c-14 -2 -54 -14 -90 -26 l-65 -22 50 -3 c28 -1 116 -9
197 -17 148 -15 207 -12 273 16 28 12 25 13 -55 20 -47 4 -123 14 -169 23 -84
16 -95 17 -141 9z"/>
<path d="M8151 7819 c-106 -16 -102 -26 15 -33 67 -4 159 -19 239 -39 110 -27
149 -32 250 -32 97 0 129 4 163 19 23 10 42 22 42 25 0 3 -48 6 -108 7 -78 1
-138 8 -222 28 -129 31 -279 40 -379 25z"/>
<path d="M8779 7533 c138 -179 200 -330 241 -583 12 -74 28 -169 36 -210 l14
-75 -5 135 c-5 154 -28 356 -51 445 -20 81 -74 192 -115 240 -32 36 -97 74
-127 75 -10 0 -7 -9 7 -27z"/>
<path d="M8395 7295 c4 -11 25 -89 46 -174 46 -182 88 -399 123 -646 38 -259
44 -270 45 -74 2 347 -57 662 -154 824 -40 66 -74 106 -60 70z"/>
<path d="M10050 5952 c71 -36 73 -58 9 -90 -38 -19 -78 -26 -217 -37 -181 -15
-292 -32 -292 -46 0 -13 422 -11 499 1 109 18 175 64 169 117 -4 41 -90 83
-167 83 l-56 0 55 -28z"/>
<path d="M9140 5910 c-62 -11 -209 -51 -214 -59 -2 -3 123 -6 277 -5 262 0
357 6 357 23 0 8 -302 52 -345 50 -16 -1 -50 -5 -75 -9z"/>
<path d="M8481 5854 c-12 -15 -21 -32 -21 -40 0 -27 53 -74 108 -95 53 -21 78
-23 392 -29 194 -4 360 -12 393 -19 33 -7 61 -10 63 -8 10 10 -149 71 -231 89
-79 16 -115 18 -295 12 -167 -5 -216 -3 -263 9 -96 25 -140 66 -102 93 18 13
18 14 -2 14 -12 0 -31 -12 -42 -26z"/>
<path d="M10402 5818 c-39 -63 -108 -92 -322 -133 -135 -27 -124 -38 30 -32
139 6 223 23 297 58 52 25 59 46 36 101 l-19 42 -22 -36z"/>
<path d="M8210 5688 c0 -21 42 -67 90 -98 129 -83 288 -107 598 -89 153 8 227
8 303 -1 56 -6 103 -9 105 -7 6 6 -159 64 -221 77 -29 7 -171 13 -340 14 -324
2 -358 8 -477 80 -32 19 -58 30 -58 24z"/>
<path d="M9581 5619 c-34 -4 -68 -10 -75 -12 -22 -8 81 -30 144 -30 86 0 274
35 239 44 -33 10 -230 8 -308 -2z"/>
<path d="M9870 5479 c-101 -26 -284 -34 -459 -20 -80 6 -147 9 -149 6 -9 -9
105 -57 167 -71 86 -18 158 -18 266 1 88 16 225 63 261 90 25 19 10 18 -86 -6z"/>
<path d="M9071 5281 c-11 -7 4 -15 55 -31 53 -17 95 -22 179 -22 61 0 121 4
135 10 35 14 19 18 -135 32 -71 6 -150 13 -175 16 -25 3 -51 1 -59 -5z"/>
<path d="M17297 10033 c-37 -4 -40 -7 -72 -76 -35 -76 -149 -351 -438 -1062
-214 -525 -210 -516 -253 -586 -38 -63 -78 -93 -137 -104 -37 -7 -38 -9 -35
-44 l3 -36 282 -1 281 -2 4 27 c6 41 0 50 -40 57 -85 15 -132 61 -132 128 0
60 114 378 152 423 8 11 74 13 331 11 l320 -3 58 -138 c73 -174 109 -277 109
-315 0 -48 -41 -89 -105 -103 -53 -12 -55 -13 -55 -45 0 -23 5 -34 18 -38 9
-2 167 -4 350 -3 l332 1 0 37 c0 35 -2 37 -46 48 -59 15 -131 82 -172 159 -39
74 -107 236 -425 1017 -182 447 -273 656 -284 653 -4 -1 -25 -3 -46 -5z m-51
-490 c36 -85 247 -609 251 -625 5 -17 -12 -18 -266 -18 -178 0 -271 4 -271 10
0 14 260 670 266 670 2 0 11 -17 20 -37z"/>
<path d="M21242 10009 c-308 -30 -573 -193 -725 -447 -190 -316 -180 -772 24
-1073 94 -140 220 -248 373 -320 130 -60 217 -80 389 -86 164 -6 255 4 382 44
86 27 224 93 242 115 9 11 50 245 69 396 l7 52 -43 0 c-38 0 -43 -3 -53 -32
-7 -18 -33 -76 -59 -128 -105 -212 -253 -310 -465 -310 -312 1 -554 218 -646
580 -19 73 -21 112 -21 280 1 168 4 206 23 275 36 134 100 251 185 342 109
116 220 169 376 180 290 19 497 -132 556 -408 l17 -79 39 0 38 0 0 88 c0 49
-3 156 -7 239 l-6 150 -56 28 c-185 91 -429 135 -639 114z"/>
<path d="M25032 10010 c-235 -25 -428 -117 -583 -277 -128 -133 -203 -277
-245 -473 -26 -119 -24 -322 4 -447 79 -351 332 -613 681 -705 97 -25 308 -35
410 -19 375 59 657 311 767 686 32 111 44 329 24 452 -71 445 -379 735 -832
783 -103 11 -121 11 -226 0z m261 -149 c90 -24 136 -46 206 -101 131 -104 222
-285 256 -514 37 -255 3 -520 -93 -716 -46 -94 -159 -212 -244 -253 -134 -64
-323 -75 -458 -25 -276 101 -442 410 -443 823 0 291 86 527 243 668 137 123
338 167 533 118z"/>
<path d="M15328 9985 c-4 -4 -161 -8 -350 -10 l-343 -3 0 -33 c0 -33 2 -34 54
-47 74 -18 97 -36 118 -90 17 -44 18 -96 18 -742 0 -527 -3 -705 -12 -736 -19
-61 -52 -91 -123 -111 l-61 -17 3 -35 3 -36 345 1 345 1 3 36 3 35 -56 12
c-31 6 -68 23 -85 36 -54 46 -62 95 -67 422 l-6 292 39 0 c22 0 68 -5 104 -11
170 -27 265 -115 454 -422 165 -267 281 -422 431 -573 149 -151 269 -234 426
-294 213 -82 503 -96 712 -35 146 42 307 134 307 175 0 25 -3 25 -70 1 -88
-31 -207 -52 -325 -58 -289 -15 -531 73 -736 266 -121 113 -194 206 -376 480
-169 254 -240 337 -376 442 -51 40 -83 71 -75 73 7 3 38 12 68 21 261 81 418
307 383 550 -36 252 -245 387 -633 410 -63 4 -118 4 -122 0z m218 -156 c152
-57 235 -197 221 -374 -14 -190 -133 -326 -318 -365 -61 -13 -295 -10 -317 4
-9 5 -12 75 -11 249 1 325 10 462 32 485 37 37 295 38 393 1z"/>
<path d="M18300 9939 c0 -35 1 -36 60 -52 83 -23 135 -72 156 -146 15 -49 17
-135 18 -681 1 -659 -1 -695 -45 -782 -21 -41 -54 -62 -112 -73 -35 -7 -37 -9
-37 -46 l0 -39 283 3 282 2 3 37 c3 35 2 36 -40 43 -57 10 -92 29 -117 64 -44
62 -49 122 -54 728 l-6 572 77 -92 c251 -298 644 -769 677 -813 22 -29 136
-169 254 -313 l215 -261 47 0 c44 0 47 2 53 31 3 17 6 356 6 753 0 742 5 854
40 933 22 50 48 69 118 83 53 12 59 19 46 65 -5 19 -13 20 -290 20 l-284 0 0
-37 c0 -39 2 -41 71 -52 75 -13 110 -60 128 -171 11 -70 29 -1125 19 -1115 -3
3 -34 41 -69 85 -34 44 -151 185 -258 314 -108 129 -241 289 -296 356 -55 68
-184 225 -287 349 -103 125 -194 237 -203 249 -15 21 -20 22 -235 22 l-220 0
0 -36z"/>
<path d="M22174 9971 c-2 -2 -4 -19 -4 -37 0 -29 4 -34 28 -39 68 -15 116 -41
137 -75 20 -34 20 -47 20 -755 0 -772 0 -767 -51 -818 -14 -14 -47 -31 -75
-37 -50 -12 -50 -13 -47 -49 l3 -36 333 -3 332 -2 0 40 c0 39 -1 40 -41 46
-55 9 -100 41 -124 89 -19 37 -20 63 -23 379 -2 270 0 341 10 347 7 5 199 9
426 9 l412 0 2 -252 c4 -355 0 -435 -22 -485 -21 -48 -62 -78 -121 -87 -39 -6
-40 -7 -37 -44 l3 -37 335 0 335 0 3 37 c3 36 3 36 -49 47 -67 15 -103 41
-124 93 -16 37 -20 94 -27 397 -11 452 2 1050 24 1102 21 48 59 76 124 89 54
11 54 12 54 48 l0 37 -343 0 -342 0 -3 -37 c-3 -36 -2 -37 35 -44 58 -10 106
-39 128 -76 19 -31 20 -54 23 -345 l3 -313 -425 0 -426 0 0 283 c0 157 5 302
11 327 16 71 55 103 152 124 23 6 27 11 27 44 l0 37 -336 0 c-185 0 -338 -2
-340 -4z"/>
<path d="M21799 7383 l-37 -4 -55 -132 c-30 -73 -142 -348 -247 -612 -378
-944 -375 -938 -486 -967 -42 -12 -44 -14 -44 -50 l0 -38 265 0 265 0 0 35 c0
38 -3 40 -64 50 -59 10 -86 43 -86 108 0 56 19 120 89 300 l43 107 302 0 303
0 57 -139 c100 -247 112 -294 81 -337 -14 -21 -47 -37 -97 -48 -24 -6 -28 -11
-28 -41 l0 -35 325 0 325 0 0 38 c0 37 -1 38 -47 51 -36 9 -61 26 -99 65 -58
59 -99 152 -392 876 -247 610 -316 773 -327 775 -5 1 -26 0 -46 -2z m-34 -500
c13 -36 137 -349 222 -560 4 -10 -48 -13 -241 -13 -210 0 -246 2 -246 15 0 34
227 605 240 605 4 0 15 -21 25 -47z"/>
<path d="M25321 7381 c-20 -5 -46 -62 -186 -411 -470 -1171 -489 -1215 -551
-1269 -18 -16 -50 -32 -73 -36 -40 -7 -41 -8 -41 -46 l0 -39 265 0 265 0 0 35
c0 30 -4 35 -27 41 -103 22 -123 42 -123 120 0 53 39 181 102 332 l30 72 305
-2 305 -3 71 -175 c82 -204 95 -272 56 -308 -12 -12 -39 -24 -58 -28 -58 -9
-61 -12 -61 -49 l0 -35 325 0 325 0 0 38 c0 36 -2 38 -46 50 -31 8 -60 27 -92
60 -55 54 -68 82 -294 632 -343 836 -381 927 -403 978 -25 54 -36 60 -94 43z
m159 -936 c28 -66 50 -124 50 -128 0 -9 -488 -9 -493 1 -6 10 210 564 241 616
3 5 38 -76 79 -180 40 -104 96 -243 123 -309z"/>
<path d="M13055 7352 c-105 -141 -186 -281 -250 -432 -25 -59 -29 -82 -36
-240 -5 -96 -15 -206 -23 -245 -8 -38 -13 -72 -11 -73 4 -5 108 151 173 259
l52 87 44 253 c25 140 52 287 61 327 20 85 17 100 -10 64z"/>
<path d="M17001 7358 c-18 -46 -491 -1207 -551 -1353 -76 -185 -125 -280 -159
-306 -14 -11 -45 -25 -68 -32 -41 -11 -43 -13 -43 -49 l0 -38 265 0 265 0 0
35 c0 30 -4 35 -27 41 -104 23 -128 47 -126 128 1 47 54 214 112 349 l20 47
304 0 303 0 74 -182 c40 -101 75 -203 78 -228 5 -59 -17 -88 -83 -105 -48 -11
-50 -14 -53 -49 l-3 -36 325 0 326 0 0 38 c0 36 -2 38 -45 50 -64 17 -125 77
-168 165 -38 76 -147 340 -575 1385 l-66 162 -48 0 c-41 0 -50 -4 -57 -22z
m113 -725 c64 -161 119 -300 122 -308 5 -13 -25 -15 -246 -15 l-251 0 6 23
c20 67 240 606 246 599 3 -4 58 -139 123 -299z"/>
<path d="M12085 7280 c12 -171 44 -424 58 -465 35 -97 170 -385 180 -385 1 0
2 107 1 238 l0 237 -57 131 c-54 127 -125 258 -168 313 l-21 26 7 -95z"/>
<path d="M15465 7364 c-218 -19 -396 -84 -546 -200 -151 -116 -263 -300 -304
-499 -104 -507 145 -951 612 -1091 118 -36 343 -45 476 -20 134 26 340 106
353 139 8 22 62 402 57 410 -7 12 -83 8 -83 -5 0 -24 -89 -195 -133 -255 -83
-112 -190 -164 -342 -166 -103 -2 -174 13 -262 54 -265 125 -419 469 -381 854
32 329 199 566 443 631 131 35 266 27 375 -22 110 -49 215 -190 252 -339 16
-64 24 -75 59 -75 29 0 29 1 29 58 0 33 -3 134 -7 227 l-6 168 -52 23 c-163
72 -403 120 -540 108z"/>
<path d="M20180 7360 c-542 -54 -885 -477 -829 -1023 41 -404 324 -712 726
-788 40 -7 119 -10 220 -6 186 6 267 24 415 94 88 42 98 49 103 77 32 199 55
351 55 371 0 18 -5 25 -19 25 -11 0 -26 2 -34 5 -10 4 -31 -29 -75 -119 -104
-210 -200 -292 -373 -316 -167 -23 -340 32 -462 149 -157 149 -234 342 -244
611 -4 122 -2 161 16 246 37 181 104 310 212 407 206 187 547 195 713 17 52
-56 116 -182 136 -267 12 -53 12 -53 51 -53 l39 0 -6 178 c-7 256 -8 258 -52
281 -61 31 -211 79 -297 95 -105 19 -203 25 -295 16z"/>
<path d="M18464 7341 c-201 -55 -329 -174 -365 -342 -6 -29 -9 -91 -7 -140 4
-76 9 -97 41 -162 60 -120 184 -220 428 -343 239 -120 327 -216 337 -370 8
-127 -45 -227 -152 -281 -41 -22 -69 -27 -143 -31 -225 -11 -352 92 -453 363
-25 68 -27 70 -60 70 l-35 0 3 -194 c2 -107 8 -204 12 -217 6 -15 37 -36 93
-64 243 -117 539 -125 739 -18 73 39 167 133 201 200 101 202 68 425 -87 586
-78 82 -151 129 -364 237 -253 128 -316 193 -316 325 1 117 56 205 159 252 41
19 67 23 145 23 84 0 102 -3 152 -28 92 -45 155 -136 195 -277 16 -58 17 -60
50 -60 l33 0 0 189 c0 139 -3 191 -13 199 -16 14 -107 50 -187 74 -98 30 -311
35 -406 9z"/>
<path d="M22780 7293 c0 -39 1 -39 51 -52 77 -20 106 -52 119 -131 14 -90 13
-1228 -1 -1306 -6 -32 -17 -69 -25 -82 -21 -33 -74 -62 -111 -62 -32 0 -33 -2
-33 -38 l0 -39 423 -6 c232 -3 458 -1 502 4 246 27 455 133 594 301 68 82 145
239 172 353 26 106 31 312 10 410 -78 371 -290 577 -681 661 -61 14 -162 17
-547 21 l-473 5 0 -39z m933 -112 c112 -29 191 -75 272 -156 79 -79 121 -152
158 -271 91 -290 40 -649 -120 -844 -115 -141 -278 -212 -488 -213 -186 -1
-261 36 -284 141 -12 59 -14 1287 -2 1332 6 23 13 26 76 31 120 12 303 2 388
-20z"/>
<path d="M13073 7070 c-34 -173 -45 -248 -41 -261 2 -7 19 11 36 38 l33 51 -3
143 -3 144 -22 -115z"/>
<path d="M11440 6883 c0 -3 37 -45 83 -92 50 -52 123 -147 186 -241 113 -169
176 -242 261 -299 58 -40 182 -111 193 -111 4 0 -13 26 -37 58 -72 93 -173
268 -208 359 -33 87 -62 120 -164 191 -80 55 -314 156 -314 135z"/>
<path d="M13695 6654 c-138 -16 -272 -53 -370 -101 -116 -58 -154 -98 -322
-339 -35 -49 -80 -107 -102 -129 -22 -22 -40 -43 -41 -46 0 -9 187 64 235 92
58 33 116 80 245 201 147 137 234 206 338 269 45 28 82 52 82 55 0 4 -11 4
-65 -2z"/>
<path d="M13020 5808 c-78 -29 -96 -32 -212 -32 -71 -1 -128 -4 -128 -8 0 -15
77 -68 119 -84 79 -28 229 -30 387 -4 154 25 231 23 356 -9 l73 -19 -50 46
c-116 105 -211 142 -364 141 -81 0 -109 -5 -181 -31z"/>
</g>
</svg>
